{
  "source": "C:\\Users\\Peter\\Desktop\\stuff\\MIUN\\quantitative_research\\video_compression\\videos\\HEVC_CLASS_B\\BQTerrace_1920x1080_60.y4m",
  "output": "C:\\Users\\Peter\\Desktop\\stuff\\MIUN\\quantitative_research\\video_compression\\compressed_videos\\HEVC_CLASS_B\\av1\\4\\BQTerrace_1920x1080_60_av1.mkv",
  "codec": "av1",
  "ok": "Input #0, yuv4mpegpipe, from 'C:\\Users\\Peter\\Desktop\\stuff\\MIUN\\quantitative_research\\video_compression\\videos\\HEVC_CLASS_B\\BQTerrace_1920x1080_60.y4m':\n  Duration: 00:00:10.00, start: 0.000000, bitrate: 1492994 kb/s\n  Stream #0:0: Video: rawvideo (I420 / 0x30323449), yuv420p(progressive), 1920x1080, 60 fps, 60 tbr, 60 tbn\n[out#0/matroska @ 000001e41b9c8ec0] Codec AVOption b:a (set bitrate (in bits/s)) has not been used for any stream. The most likely reason is either wrong type (e.g. a video option with no video streams) or that it is a private option of some decoder which was not actually used for any stream.\nStream mapping:\n  Stream #0:0 -> #0:0 (rawvideo (native) -> av1 (libsvtav1))\nPress [q] to stop, [?] for help\nSvt[info]: -------------------------------------------\nSvt[info]: SVT [version]:\tSVT-AV1 Encoder Lib v3.1.0-19-g6ecfe8ec\nSvt[info]: SVT [build]  :\tGCC 15.2.0\t 64 bit\nSvt[info]: LIB Build date: Aug 17 2025 11:37:13\nSvt[info]: -------------------------------------------\n[libsvtav1 @ 000001e41b9cc080] Specified chroma sample location center is unsupported on the AV1 bit stream level. Usage of a container that allows passing this information - such as Matroska - is recommended.\nSvt[info]: Level of Parallelism: 5\nSvt[info]: Number of PPCS 93\nSvt[info]: [asm level on system : up to avx2]\nSvt[info]: [asm level selected : up to avx2]\nSvt[info]: -------------------------------------------\nSvt[info]: SVT [config]: main profile\ttier (auto)\tlevel (auto)\nSvt[info]: SVT [config]: width / height / fps numerator / fps denominator \t\t: 1920 / 1080 / 60 / 1\nSvt[info]: SVT [config]: bit-depth / color format \t\t\t\t\t: 8 / YUV420\nSvt[info]: SVT [config]: preset / tune / pred struct \t\t\t\t\t: 4 / PSNR / random access\nSvt[info]: SVT [config]: gop size / mini-gop size / key-frame type \t\t\t: 321 / 16 / key frame\nSvt[info]: SVT [config]: BRC mode / target bitrate (kbps)\t\t\t\t: VBR / 4000 \nSvt[info]: SVT [config]: AQ mode / Variance Boost \t\t\t\t\t: 2 / 0\nSvt[info]: SVT [config]: sharpness / luminance-based QP bias \t\t\t\t: 0 / 0\nSvt[info]: SVT [config]: QP scale compress strength \t\t\t\t\t: 0\nSvt[info]: -------------------------------------------\nOutput #0, matroska, to 'C:\\Users\\Peter\\Desktop\\stuff\\MIUN\\quantitative_research\\video_compression\\compressed_videos\\HEVC_CLASS_B\\av1\\4\\BQTerrace_1920x1080_60_av1.mkv':\n  Metadata:\n    encoder         : Lavf62.3.100\n  Stream #0:0: Video: av1 (AV01 / 0x31305641), yuv420p(tv, progressive), 1920x1080, q=2-31, 4000 kb/s, 60 fps, 1k tbn\n    Metadata:\n      encoder         : Lavc62.11.100 libsvtav1\n    Side data:\n      cpb: bitrate max/min/avg: 0/0/4000000 buffer size: 4000000 vbv_delay: N/A\nframe=    0 fps=0.0 q=0.0 size=       0KiB time=N/A bitrate=N/A speed=N/A elapsed=0:00:03.65    \nframe=    0 fps=0.0 q=0.0 size=       0KiB time=N/A bitrate=N/A speed=N/A elapsed=0:00:05.35    \nframe=    0 fps=0.0 q=0.0 size=       0KiB time=N/A bitrate=N/A speed=N/A elapsed=0:00:06.29    \nframe=    0 fps=0.0 q=0.0 size=       0KiB time=N/A bitrate=N/A speed=N/A elapsed=0:00:06.84    \nframe=    0 fps=0.0 q=0.0 size=       0KiB time=N/A bitrate=N/A speed=N/A elapsed=0:00:07.50    \nframe=    0 fps=0.0 q=0.0 size=       0KiB time=N/A bitrate=N/A speed=N/A elapsed=0:00:08.03    \nframe=    0 fps=0.0 q=0.0 size=       0KiB time=N/A bitrate=N/A speed=N/A elapsed=0:00:08.65    \nframe=    0 fps=0.0 q=0.0 size=       0KiB time=N/A bitrate=N/A speed=N/A elapsed=0:00:09.21    \nframe=    0 fps=0.0 q=0.0 size=       0KiB time=N/A bitrate=N/A speed=N/A elapsed=0:00:09.73    \nframe=    0 fps=0.0 q=0.0 size=       0KiB time=N/A bitrate=N/A speed=N/A elapsed=0:00:10.27    \nframe=    0 fps=0.0 q=0.0 size=       0KiB time=N/A bitrate=N/A speed=N/A elapsed=0:00:10.83    \nframe=    0 fps=0.0 q=0.0 size=       0KiB time=N/A bitrate=N/A speed=N/A elapsed=0:00:11.37    \nframe=    0 fps=0.0 q=0.0 size=       0KiB time=N/A bitrate=N/A speed=N/A elapsed=0:00:11.89    \nframe=    0 fps=0.0 q=0.0 size=       0KiB time=N/A bitrate=N/A speed=N/A elapsed=0:00:12.43    \nframe=    0 fps=0.0 q=0.0 size=       0KiB time=N/A bitrate=N/A speed=N/A elapsed=0:00:12.95    \nframe=    0 fps=0.0 q=0.0 size=       0KiB time=N/A bitrate=N/A speed=N/A elapsed=0:00:13.48    \nframe=    0 fps=0.0 q=0.0 size=       0KiB time=N/A bitrate=N/A speed=N/A elapsed=0:00:14.01    \nframe=    0 fps=0.0 q=0.0 size=       0KiB time=N/A bitrate=N/A speed=N/A elapsed=0:00:14.55    \nframe=    0 fps=0.0 q=0.0 size=       0KiB time=N/A bitrate=N/A speed=N/A elapsed=0:00:15.07    \nframe=    0 fps=0.0 q=0.0 size=       0KiB time=N/A bitrate=N/A speed=N/A elapsed=0:00:15.62    \nframe=    0 fps=0.0 q=0.0 size=       0KiB time=N/A bitrate=N/A speed=N/A elapsed=0:00:16.16    \nframe=    0 fps=0.0 q=0.0 size=       0KiB time=N/A bitrate=N/A speed=N/A elapsed=0:00:16.71    \nframe=    0 fps=0.0 q=0.0 size=       0KiB time=N/A bitrate=N/A speed=N/A elapsed=0:00:17.23    \nframe=    0 fps=0.0 q=0.0 size=       0KiB time=N/A bitrate=N/A speed=N/A elapsed=0:00:17.75    \nframe=    0 fps=0.0 q=0.0 size=       0KiB time=N/A bitrate=N/A speed=N/A elapsed=0:00:18.32    \nframe=    0 fps=0.0 q=0.0 size=       0KiB time=N/A bitrate=N/A speed=N/A elapsed=0:00:18.85    \nframe=    0 fps=0.0 q=0.0 size=       0KiB time=N/A bitrate=N/A speed=N/A elapsed=0:00:19.36    \nframe=    0 fps=0.0 q=0.0 size=       0KiB time=N/A bitrate=N/A speed=N/A elapsed=0:00:19.88    \nframe=    0 fps=0.0 q=0.0 size=       0KiB time=N/A bitrate=N/A speed=N/A elapsed=0:00:20.46    \nframe=    0 fps=0.0 q=0.0 size=       0KiB time=N/A bitrate=N/A speed=N/A elapsed=0:00:20.98    \nframe=    0 fps=0.0 q=0.0 size=       0KiB time=N/A bitrate=N/A speed=N/A elapsed=0:00:21.54    \nframe=    0 fps=0.0 q=0.0 size=       0KiB time=N/A bitrate=N/A speed=N/A elapsed=0:00:22.06    \nframe=    0 fps=0.0 q=0.0 size=       0KiB time=N/A bitrate=N/A speed=N/A elapsed=0:00:22.62    \nframe=    0 fps=0.0 q=0.0 size=       0KiB time=N/A bitrate=N/A speed=N/A elapsed=0:00:23.19    \nframe=    0 fps=0.0 q=0.0 size=       0KiB time=N/A bitrate=N/A speed=N/A elapsed=0:00:23.72    \nframe=    0 fps=0.0 q=0.0 size=       0KiB time=N/A bitrate=N/A speed=N/A elapsed=0:00:24.33    \nframe=    1 fps=0.0 q=17.0 size=       1KiB time=00:00:00.00 bitrate=N/A speed=   0x elapsed=0:00:24.95    \nframe=    1 fps=0.0 q=17.0 size=       1KiB time=00:00:00.00 bitrate=N/A speed=   0x elapsed=0:00:25.54    \nframe=    1 fps=0.0 q=17.0 size=       1KiB time=00:00:00.00 bitrate=N/A speed=   0x elapsed=0:00:26.11    \nframe=    1 fps=0.0 q=17.0 size=       1KiB time=00:00:00.00 bitrate=N/A speed=   0x elapsed=0:00:26.68    \nframe=    1 fps=0.0 q=17.0 size=       1KiB time=00:00:00.00 bitrate=N/A speed=   0x elapsed=0:00:27.19    \nframe=    1 fps=0.0 q=17.0 size=       1KiB time=00:00:00.00 bitrate=N/A speed=   0x elapsed=0:00:27.71    \nframe=    1 fps=0.0 q=17.0 size=       1KiB time=00:00:00.00 bitrate=N/A speed=   0x elapsed=0:00:28.25    \nframe=    1 fps=0.0 q=17.0 size=       1KiB time=00:00:00.00 bitrate=N/A speed=   0x elapsed=0:00:28.77    \nframe=    1 fps=0.0 q=17.0 size=       1KiB time=00:00:00.00 bitrate=N/A speed=   0x elapsed=0:00:29.28    \nframe=    1 fps=0.0 q=17.0 size=       1KiB time=00:00:00.00 bitrate=N/A speed=   0x elapsed=0:00:29.81    \nframe=    1 fps=0.0 q=17.0 size=       1KiB time=00:00:00.00 bitrate=N/A speed=   0x elapsed=0:00:30.33    \nframe=    1 fps=0.0 q=17.0 size=       1KiB time=00:00:00.00 bitrate=N/A speed=   0x elapsed=0:00:31.04    \nframe=    2 fps=0.1 q=47.0 size=       1KiB time=00:00:00.00 bitrate=N/A speed=   0x elapsed=0:00:31.59    \nframe=    3 fps=0.1 q=43.0 size=       1KiB time=00:00:00.03 bitrate= 134.4kbits/s speed=0.00103x elapsed=0:00:32.23    \nframe=    4 fps=0.1 q=47.0 size=       1KiB time=00:00:00.05 bitrate=  89.6kbits/s speed=0.00153x elapsed=0:00:32.75    \nframe=    6 fps=0.2 q=43.0 size=       1KiB time=00:00:00.06 bitrate=  67.2kbits/s speed=0.002x elapsed=0:00:33.28    \nframe=    6 fps=0.2 q=43.0 size=       1KiB time=00:00:00.08 bitrate=  53.8kbits/s speed=0.00246x elapsed=0:00:33.86    \nframe=    6 fps=0.2 q=43.0 size=       1KiB time=00:00:00.08 bitrate=  53.8kbits/s speed=0.00242x elapsed=0:00:34.38    \nframe=    7 fps=0.2 q=43.0 size=       1KiB time=00:00:00.10 bitrate=  44.8kbits/s speed=0.00286x elapsed=0:00:34.91    \nframe=    8 fps=0.2 q=43.0 size=       1KiB time=00:00:00.11 bitrate=  38.4kbits/s speed=0.00328x elapsed=0:00:35.52    \nframe=   10 fps=0.3 q=42.0 size=       1KiB time=00:00:00.15 bitrate=  29.9kbits/s speed=0.00414x elapsed=0:00:36.21    \nframe=   11 fps=0.3 q=43.0 size=       1KiB time=00:00:00.16 bitrate=  26.9kbits/s speed=0.00454x elapsed=0:00:36.73    \nframe=   12 fps=0.3 q=42.0 size=       1KiB time=00:00:00.18 bitrate=  24.4kbits/s speed=0.00492x elapsed=0:00:37.23    \nframe=   14 fps=0.4 q=40.0 size=       1KiB time=00:00:00.21 bitrate=  20.7kbits/s speed=0.00574x elapsed=0:00:37.76    \nframe=   14 fps=0.4 q=40.0 size=       1KiB time=00:00:00.21 bitrate=  20.7kbits/s speed=0.00566x elapsed=0:00:38.27    \nframe=   15 fps=0.4 q=41.0 size=       1KiB time=00:00:00.23 bitrate=  19.2kbits/s speed=0.00601x elapsed=0:00:38.79    \nframe=   16 fps=0.4 q=40.0 size=       1KiB time=00:00:00.25 bitrate=  17.9kbits/s speed=0.00636x elapsed=0:00:39.30    \nframe=   17 fps=0.4 q=26.0 size=       1KiB time=00:00:00.26 bitrate=  16.8kbits/s speed=0.0067x elapsed=0:00:39.82    \nframe=   18 fps=0.4 q=38.0 size=       1KiB time=00:00:00.28 bitrate=  15.8kbits/s speed=0.00703x elapsed=0:00:40.33    \nframe=   19 fps=0.5 q=39.0 size=       1KiB time=00:00:00.30 bitrate=  14.9kbits/s speed=0.00734x elapsed=0:00:40.85    \nframe=   19 fps=0.5 q=39.0 size=       1KiB time=00:00:00.30 bitrate=  14.9kbits/s speed=0.00725x elapsed=0:00:41.37    \nframe=   20 fps=0.5 q=38.0 size=       1KiB time=00:00:00.31 bitrate=  14.1kbits/s speed=0.00756x elapsed=0:00:41.89    \nframe=   21 fps=0.5 q=41.0 size=       1KiB time=00:00:00.33 bitrate=  13.4kbits/s speed=0.00786x elapsed=0:00:42.39    \nframe=   22 fps=0.5 q=37.0 size=       1KiB time=00:00:00.35 bitrate=  12.8kbits/s speed=0.00815x elapsed=0:00:42.92    \nframe=   22 fps=0.5 q=37.0 size=       1KiB time=00:00:00.35 bitrate=  12.8kbits/s speed=0.00806x elapsed=0:00:43.43    \nframe=   23 fps=0.5 q=39.0 size=       1KiB time=00:00:00.36 bitrate=  12.2kbits/s speed=0.00834x elapsed=0:00:43.95    \nframe=   23 fps=0.5 q=39.0 size=       1KiB time=00:00:00.36 bitrate=  12.2kbits/s speed=0.00825x elapsed=0:00:44.46    \nframe=   24 fps=0.5 q=37.0 size=       1KiB time=00:00:00.38 bitrate=  11.7kbits/s speed=0.00852x elapsed=0:00:44.98    \nframe=   26 fps=0.6 q=35.0 size=       1KiB time=00:00:00.41 bitrate=  10.8kbits/s speed=0.00916x elapsed=0:00:45.49    \nframe=   26 fps=0.6 q=35.0 size=       1KiB time=00:00:00.41 bitrate=  10.8kbits/s speed=0.00906x elapsed=0:00:46.01    \nframe=   26 fps=0.6 q=35.0 size=       1KiB time=00:00:00.41 bitrate=  10.8kbits/s speed=0.00896x elapsed=0:00:46.52    \nframe=   27 fps=0.6 q=37.0 size=       1KiB time=00:00:00.43 bitrate=  10.3kbits/s speed=0.00921x elapsed=0:00:47.03    \nframe=   28 fps=0.6 q=28.0 size=       1KiB time=00:00:00.45 bitrate=  10.0kbits/s speed=0.00946x elapsed=0:00:47.55    \nframe=   30 fps=0.6 q=47.0 size=       1KiB time=00:00:00.48 bitrate=   9.3kbits/s speed=0.0101x elapsed=0:00:48.06    \nframe=   32 fps=0.7 q=34.0 size=       1KiB time=00:00:00.51 bitrate=   8.7kbits/s speed=0.0106x elapsed=0:00:48.58    \nframe=   32 fps=0.7 q=34.0 size=       1KiB time=00:00:00.51 bitrate=   8.7kbits/s speed=0.0105x elapsed=0:00:49.10    \nframe=   33 fps=0.7 q=27.0 size=       1KiB time=00:00:00.53 bitrate=   8.4kbits/s speed=0.0107x elapsed=0:00:49.62    \nframe=   34 fps=0.7 q=35.0 size=       1KiB time=00:00:00.55 bitrate=   8.1kbits/s speed=0.011x elapsed=0:00:50.12    \nframe=   35 fps=0.7 q=38.0 size=       1KiB time=00:00:00.56 bitrate=   7.9kbits/s speed=0.0112x elapsed=0:00:50.65    \nframe=   35 fps=0.7 q=38.0 size=       1KiB time=00:00:00.56 bitrate=   7.9kbits/s speed=0.0111x elapsed=0:00:51.16    \nframe=   36 fps=0.7 q=34.0 size=       1KiB time=00:00:00.58 bitrate=   7.7kbits/s speed=0.0113x elapsed=0:00:51.68    \nframe=   37 fps=0.7 q=39.0 size=       1KiB time=00:00:00.60 bitrate=   7.5kbits/s speed=0.0115x elapsed=0:00:52.20    \nframe=   38 fps=0.7 q=35.0 size=       1KiB time=00:00:00.61 bitrate=   7.3kbits/s speed=0.0117x elapsed=0:00:52.71    \nframe=   38 fps=0.7 q=35.0 size=       1KiB time=00:00:00.61 bitrate=   7.3kbits/s speed=0.0116x elapsed=0:00:53.22    \nframe=   39 fps=0.7 q=37.0 size=       1KiB time=00:00:00.63 bitrate=   7.1kbits/s speed=0.0118x elapsed=0:00:53.74    \nframe=   39 fps=0.7 q=37.0 size=       1KiB time=00:00:00.63 bitrate=   7.1kbits/s speed=0.0117x elapsed=0:00:54.26    \nframe=   40 fps=0.7 q=35.0 size=       1KiB time=00:00:00.65 bitrate=   6.9kbits/s speed=0.0119x elapsed=0:00:54.79    \nframe=   40 fps=0.7 q=35.0 size=       1KiB time=00:00:00.65 bitrate=   6.9kbits/s speed=0.0118x elapsed=0:00:55.30    \nframe=   41 fps=0.7 q=29.0 size=       1KiB time=00:00:00.66 bitrate=   6.7kbits/s speed=0.0119x elapsed=0:00:55.82    \nframe=   41 fps=0.7 q=29.0 size=       1KiB time=00:00:00.66 bitrate=   6.7kbits/s speed=0.0118x elapsed=0:00:56.33    \nframe=   43 fps=0.8 q=37.0 size=       1KiB time=00:00:00.70 bitrate=   6.4kbits/s speed=0.0123x elapsed=0:00:56.85    \nframe=   43 fps=0.7 q=37.0 size=       1KiB time=00:00:00.70 bitrate=   6.4kbits/s speed=0.0122x elapsed=0:00:57.36    \nframe=   44 fps=0.8 q=35.0 size=       1KiB time=00:00:00.71 bitrate=   6.3kbits/s speed=0.0124x elapsed=0:00:57.88    \nframe=   46 fps=0.8 q=35.0 size=       1KiB time=00:00:00.75 bitrate=   6.0kbits/s speed=0.0128x elapsed=0:00:58.39    \nframe=   47 fps=0.8 q=36.0 size=       1KiB time=00:00:00.76 bitrate=   5.8kbits/s speed=0.013x elapsed=0:00:58.91    \nframe=   47 fps=0.8 q=36.0 size=       1KiB time=00:00:00.76 bitrate=   5.8kbits/s speed=0.0129x elapsed=0:00:59.43    \nframe=   48 fps=0.8 q=36.0 size=       1KiB time=00:00:00.78 bitrate=   5.7kbits/s speed=0.0131x elapsed=0:00:59.94    \nframe=   48 fps=0.8 q=36.0 size=       1KiB time=00:00:00.78 bitrate=   5.7kbits/s speed=0.013x elapsed=0:01:00.46    \nframe=   49 fps=0.8 q=23.0 size=       1KiB time=00:00:00.80 bitrate=   5.6kbits/s speed=0.0131x elapsed=0:01:00.97    \nframe=   50 fps=0.8 q=36.0 size=       1KiB time=00:00:00.81 bitrate=   5.5kbits/s speed=0.0133x elapsed=0:01:01.49    \nframe=   50 fps=0.8 q=36.0 size=       1KiB time=00:00:00.81 bitrate=   5.5kbits/s speed=0.0132x elapsed=0:01:02.01    \nframe=   51 fps=0.8 q=37.0 size=       1KiB time=00:00:00.83 bitrate=   5.4kbits/s speed=0.0133x elapsed=0:01:02.52    \nframe=   51 fps=0.8 q=37.0 size=       1KiB time=00:00:00.83 bitrate=   5.4kbits/s speed=0.0132x elapsed=0:01:03.03    \nframe=   52 fps=0.8 q=35.0 size=       1KiB time=00:00:00.85 bitrate=   5.3kbits/s speed=0.0134x elapsed=0:01:03.57    \nframe=   52 fps=0.8 q=35.0 size=       1KiB time=00:00:00.85 bitrate=   5.3kbits/s speed=0.0133x elapsed=0:01:04.09    \nframe=   54 fps=0.8 q=36.0 size=       1KiB time=00:00:00.88 bitrate=   5.1kbits/s speed=0.0137x elapsed=0:01:04.69    \nframe=   54 fps=0.8 q=36.0 size=       1KiB time=00:00:00.88 bitrate=   5.1kbits/s speed=0.0135x elapsed=0:01:05.24    \nframe=   54 fps=0.8 q=36.0 size=       1KiB time=00:00:00.88 bitrate=   5.1kbits/s speed=0.0134x elapsed=0:01:05.80    \nframe=   55 fps=0.8 q=37.0 size=       1KiB time=00:00:00.90 bitrate=   5.0kbits/s speed=0.0136x elapsed=0:01:06.37    \nframe=   56 fps=0.8 q=35.0 size=       1KiB time=00:00:00.91 bitrate=   4.9kbits/s speed=0.0137x elapsed=0:01:06.92    \nframe=   58 fps=0.9 q=33.0 size=       1KiB time=00:00:00.95 bitrate=   4.7kbits/s speed=0.0141x elapsed=0:01:07.44    \nframe=   58 fps=0.9 q=33.0 size=       1KiB time=00:00:00.95 bitrate=   4.7kbits/s speed=0.014x elapsed=0:01:07.97    \nframe=   58 fps=0.8 q=33.0 size=       1KiB time=00:00:00.95 bitrate=   4.7kbits/s speed=0.0139x elapsed=0:01:08.48    \nframe=   59 fps=0.9 q=37.0 size=       1KiB time=00:00:00.96 bitrate=   4.6kbits/s speed=0.014x elapsed=0:01:08.99    \nframe=   60 fps=0.9 q=32.0 size=       1KiB time=00:00:00.98 bitrate=   4.6kbits/s speed=0.0141x elapsed=0:01:09.51    \nframe=   61 fps=0.9 q=39.0 size=       1KiB time=00:00:01.00 bitrate=   4.5kbits/s speed=0.0143x elapsed=0:01:10.03    \nframe=   62 fps=0.9 q=36.0 size=       1KiB time=00:00:01.01 bitrate=   4.4kbits/s speed=0.0144x elapsed=0:01:10.54    \nframe=   63 fps=0.9 q=37.0 size=       1KiB time=00:00:01.03 bitrate=   4.3kbits/s speed=0.0145x elapsed=0:01:11.06    \nframe=   63 fps=0.9 q=37.0 size=       1KiB time=00:00:01.03 bitrate=   4.3kbits/s speed=0.0144x elapsed=0:01:11.58    \nframe=   64 fps=0.9 q=33.0 size=       1KiB time=00:00:01.05 bitrate=   4.3kbits/s speed=0.0146x elapsed=0:01:12.09    \nframe=   64 fps=0.9 q=33.0 size=       1KiB time=00:00:01.05 bitrate=   4.3kbits/s speed=0.0145x elapsed=0:01:12.60    \nframe=   65 fps=0.9 q=18.0 size=       1KiB time=00:00:01.06 bitrate=   4.2kbits/s speed=0.0146x elapsed=0:01:13.12    \nframe=   66 fps=0.9 q=34.0 size=       1KiB time=00:00:01.08 bitrate=   4.1kbits/s speed=0.0147x elapsed=0:01:13.63    \nframe=   67 fps=0.9 q=37.0 size=       1KiB time=00:00:01.10 bitrate=   4.1kbits/s speed=0.0148x elapsed=0:01:14.15    \nframe=   68 fps=0.9 q=34.0 size=       1KiB time=00:00:01.11 bitrate=   4.0kbits/s speed=0.015x elapsed=0:01:14.68    \nframe=   68 fps=0.9 q=34.0 size=       1KiB time=00:00:01.11 bitrate=   4.0kbits/s speed=0.0149x elapsed=0:01:15.19    \nframe=   69 fps=0.9 q=39.0 size=       1KiB time=00:00:01.13 bitrate=   4.0kbits/s speed=0.015x elapsed=0:01:15.71    \nframe=   69 fps=0.9 q=39.0 size=       1KiB time=00:00:01.13 bitrate=   4.0kbits/s speed=0.0149x elapsed=0:01:16.23    \nframe=   70 fps=0.9 q=35.0 size=       1KiB time=00:00:01.15 bitrate=   3.9kbits/s speed=0.015x elapsed=0:01:16.75    \nframe=   70 fps=0.9 q=35.0 size=       1KiB time=00:00:01.15 bitrate=   3.9kbits/s speed=0.0149x elapsed=0:01:17.25    \nframe=   70 fps=0.9 q=35.0 size=       1KiB time=00:00:01.15 bitrate=   3.9kbits/s speed=0.0148x elapsed=0:01:17.77    \nframe=   71 fps=0.9 q=36.0 size=       1KiB time=00:00:01.16 bitrate=   3.8kbits/s speed=0.0149x elapsed=0:01:18.28    \nframe=   71 fps=0.9 q=36.0 size=       1KiB time=00:00:01.16 bitrate=   3.8kbits/s speed=0.0148x elapsed=0:01:18.80    \nframe=   72 fps=0.9 q=34.0 size=       1KiB time=00:00:01.18 bitrate=   3.8kbits/s speed=0.0149x elapsed=0:01:19.32    \nframe=   73 fps=0.9 q=30.0 size=       1KiB time=00:00:01.20 bitrate=   3.7kbits/s speed=0.015x elapsed=0:01:19.83    \nframe=   75 fps=0.9 q=37.0 size=       1KiB time=00:00:01.23 bitrate=   3.6kbits/s speed=0.0153x elapsed=0:01:20.35    \nframe=   75 fps=0.9 q=37.0 size=       1KiB time=00:00:01.23 bitrate=   3.6kbits/s speed=0.0153x elapsed=0:01:20.87    \nframe=   75 fps=0.9 q=37.0 size=       1KiB time=00:00:01.23 bitrate=   3.6kbits/s speed=0.0152x elapsed=0:01:21.37    \nframe=   78 fps=1.0 q=37.0 size=       1KiB time=00:00:01.28 bitrate=   3.5kbits/s speed=0.0157x elapsed=0:01:21.90    \nframe=   79 fps=1.0 q=37.0 size=       1KiB time=00:00:01.30 bitrate=   3.4kbits/s speed=0.0158x elapsed=0:01:22.42    \nframe=   80 fps=1.0 q=34.0 size=       1KiB time=00:00:01.31 bitrate=   3.4kbits/s speed=0.0159x elapsed=0:01:22.93    \nframe=   80 fps=1.0 q=34.0 size=       1KiB time=00:00:01.31 bitrate=   3.4kbits/s speed=0.0158x elapsed=0:01:23.44    \nframe=   81 fps=1.0 q=15.0 size=       1KiB time=00:00:01.33 bitrate=   3.4kbits/s speed=0.0159x elapsed=0:01:23.96    \nframe=   82 fps=1.0 q=34.0 size=       1KiB time=00:00:01.35 bitrate=   3.3kbits/s speed=0.016x elapsed=0:01:24.48    \nframe=   83 fps=1.0 q=35.0 size=       1KiB time=00:00:01.36 bitrate=   3.3kbits/s speed=0.0161x elapsed=0:01:25.09    \nframe=   84 fps=1.0 q=34.0 size=       1KiB time=00:00:01.38 bitrate=   3.2kbits/s speed=0.0161x elapsed=0:01:25.82    \nframe=   85 fps=1.0 q=37.0 size=       1KiB time=00:00:01.40 bitrate=   3.2kbits/s speed=0.0162x elapsed=0:01:26.33    \nframe=   86 fps=1.0 q=35.0 size=       1KiB time=00:00:01.41 bitrate=   3.2kbits/s speed=0.0163x elapsed=0:01:26.86    \nframe=   86 fps=1.0 q=35.0 size=       1KiB time=00:00:01.41 bitrate=   3.2kbits/s speed=0.0162x elapsed=0:01:27.36    \nframe=   86 fps=1.0 q=35.0 size=       1KiB time=00:00:01.41 bitrate=   3.2kbits/s speed=0.0161x elapsed=0:01:27.87    \nframe=   87 fps=1.0 q=36.0 size=       1KiB time=00:00:01.43 bitrate=   3.1kbits/s speed=0.0162x elapsed=0:01:28.39    \nframe=   87 fps=1.0 q=36.0 size=       1KiB time=00:00:01.43 bitrate=   3.1kbits/s speed=0.0161x elapsed=0:01:28.92    \nframe=   89 fps=1.0 q=29.0 size=       1KiB time=00:00:01.46 bitrate=   3.1kbits/s speed=0.0164x elapsed=0:01:29.43    \nframe=   89 fps=1.0 q=29.0 size=       1KiB time=00:00:01.46 bitrate=   3.1kbits/s speed=0.0163x elapsed=0:01:29.94    \nframe=   90 fps=1.0 q=35.0 size=       1KiB time=00:00:01.48 bitrate=   3.0kbits/s speed=0.0164x elapsed=0:01:30.46    \nframe=   91 fps=1.0 q=36.0 size=       1KiB time=00:00:01.50 bitrate=   3.0kbits/s speed=0.0165x elapsed=0:01:30.98    \nframe=   91 fps=1.0 q=36.0 size=       1KiB time=00:00:01.50 bitrate=   3.0kbits/s speed=0.0164x elapsed=0:01:31.50    \nframe=   94 fps=1.0 q=36.0 size=       1KiB time=00:00:01.55 bitrate=   2.9kbits/s speed=0.0168x elapsed=0:01:32.00    \nframe=   94 fps=1.0 q=36.0 size=       1KiB time=00:00:01.55 bitrate=   2.9kbits/s speed=0.0168x elapsed=0:01:32.53    \nframe=   95 fps=1.0 q=36.0 size=       1KiB time=00:00:01.56 bitrate=   2.9kbits/s speed=0.0168x elapsed=0:01:33.04    \nframe=   96 fps=1.0 q=32.0 size=       1KiB time=00:00:01.58 bitrate=   2.8kbits/s speed=0.0169x elapsed=0:01:33.56    \nframe=   96 fps=1.0 q=32.0 size=       1KiB time=00:00:01.58 bitrate=   2.8kbits/s speed=0.0168x elapsed=0:01:34.07    \nframe=   96 fps=1.0 q=32.0 size=       1KiB time=00:00:01.58 bitrate=   2.8kbits/s speed=0.0167x elapsed=0:01:34.59    \nframe=   97 fps=1.0 q=19.0 size=       1KiB time=00:00:01.60 bitrate=   2.8kbits/s speed=0.0168x elapsed=0:01:35.10    \nframe=   98 fps=1.0 q=38.0 size=       1KiB time=00:00:01.61 bitrate=   2.8kbits/s speed=0.0169x elapsed=0:01:35.61    \nframe=   99 fps=1.0 q=38.0 size=       1KiB time=00:00:01.63 bitrate=   2.7kbits/s speed=0.017x elapsed=0:01:36.13    \nframe=   99 fps=1.0 q=38.0 size=       1KiB time=00:00:01.63 bitrate=   2.7kbits/s speed=0.0169x elapsed=0:01:36.64    \nframe=  100 fps=1.0 q=38.0 size=       1KiB time=00:00:01.65 bitrate=   2.7kbits/s speed=0.017x elapsed=0:01:37.16    \nframe=  102 fps=1.0 q=38.0 size=       1KiB time=00:00:01.68 bitrate=   2.7kbits/s speed=0.0172x elapsed=0:01:37.67    \nframe=  103 fps=1.0 q=38.0 size=       1KiB time=00:00:01.70 bitrate=   2.6kbits/s speed=0.0173x elapsed=0:01:38.19    \nframe=  104 fps=1.1 q=38.0 size=       1KiB time=00:00:01.71 bitrate=   2.6kbits/s speed=0.0174x elapsed=0:01:38.71    \nframe=  104 fps=1.0 q=38.0 size=       1KiB time=00:00:01.71 bitrate=   2.6kbits/s speed=0.0173x elapsed=0:01:39.23    \nframe=  105 fps=1.1 q=28.0 size=       1KiB time=00:00:01.73 bitrate=   2.6kbits/s speed=0.0174x elapsed=0:01:39.74    \nframe=  106 fps=1.1 q=38.0 size=       1KiB time=00:00:01.75 bitrate=   2.6kbits/s speed=0.0174x elapsed=0:01:40.36    \nframe=  108 fps=1.1 q=38.0 size=       1KiB time=00:00:01.78 bitrate=   2.5kbits/s speed=0.0177x elapsed=0:01:40.90    \nframe=  108 fps=1.1 q=38.0 size=       1KiB time=00:00:01.78 bitrate=   2.5kbits/s speed=0.0176x elapsed=0:01:41.49    \nframe=  109 fps=1.1 q=38.0 size=       1KiB time=00:00:01.80 bitrate=   2.5kbits/s speed=0.0176x elapsed=0:01:42.11    \nframe=  111 fps=1.1 q=38.0 size=       1KiB time=00:00:01.83 bitrate=   2.4kbits/s speed=0.0178x elapsed=0:01:42.73    \nframe=  112 fps=1.1 q=38.0 size=       1KiB time=00:00:01.85 bitrate=   2.4kbits/s speed=0.0179x elapsed=0:01:43.28    \nframe=  114 fps=1.1 q=38.0 size=       1KiB time=00:00:01.88 bitrate=   2.4kbits/s speed=0.0181x elapsed=0:01:43.84    \nframe=  115 fps=1.1 q=38.0 size=       1KiB time=00:00:01.90 bitrate=   2.4kbits/s speed=0.0182x elapsed=0:01:44.35    \nframe=  115 fps=1.1 q=38.0 size=       1KiB time=00:00:01.90 bitrate=   2.4kbits/s speed=0.0181x elapsed=0:01:44.87    \nframe=  116 fps=1.1 q=38.0 size=       1KiB time=00:00:01.91 bitrate=   2.3kbits/s speed=0.0182x elapsed=0:01:45.38    \nframe=  118 fps=1.1 q=38.0 size=       1KiB time=00:00:01.95 bitrate=   2.3kbits/s speed=0.0184x elapsed=0:01:45.90    \nframe=  118 fps=1.1 q=38.0 size=       1KiB time=00:00:01.95 bitrate=   2.3kbits/s speed=0.0183x elapsed=0:01:46.42    \nframe=  118 fps=1.1 q=38.0 size=       1KiB time=00:00:01.95 bitrate=   2.3kbits/s speed=0.0182x elapsed=0:01:46.93    \nframe=  120 fps=1.1 q=38.0 size=       1KiB time=00:00:01.98 bitrate=   2.3kbits/s speed=0.0185x elapsed=0:01:47.45    \nframe=  120 fps=1.1 q=38.0 size=       1KiB time=00:00:01.98 bitrate=   2.3kbits/s speed=0.0184x elapsed=0:01:47.97    \nframe=  121 fps=1.1 q=29.0 size=       1KiB time=00:00:02.00 bitrate=   2.2kbits/s speed=0.0184x elapsed=0:01:48.49    \nframe=  123 fps=1.1 q=37.0 size=       1KiB time=00:00:02.03 bitrate=   2.2kbits/s speed=0.0187x elapsed=0:01:49.01    \nframe=  123 fps=1.1 q=37.0 size=       1KiB time=00:00:02.03 bitrate=   2.2kbits/s speed=0.0186x elapsed=0:01:49.52    \nframe=  124 fps=1.1 q=37.0 size=       1KiB time=00:00:02.05 bitrate=   2.2kbits/s speed=0.0186x elapsed=0:01:50.04    \nframe=  126 fps=1.1 q=35.0 size=       1KiB time=00:00:02.08 bitrate=   2.2kbits/s speed=0.0188x elapsed=0:01:50.55    \nframe=  126 fps=1.1 q=35.0 size=       1KiB time=00:00:02.08 bitrate=   2.2kbits/s speed=0.0188x elapsed=0:01:51.06    \nframe=  128 fps=1.1 q=35.0 size=       1KiB time=00:00:02.11 bitrate=   2.1kbits/s speed=0.019x elapsed=0:01:51.59    \nframe=  128 fps=1.1 q=35.0 size=       1KiB time=00:00:02.11 bitrate=   2.1kbits/s speed=0.0189x elapsed=0:01:52.12    \nframe=  129 fps=1.1 q=21.0 size=       1KiB time=00:00:02.13 bitrate=   2.1kbits/s speed=0.0189x elapsed=0:01:52.63    \nframe=  131 fps=1.2 q=38.0 size=       1KiB time=00:00:02.16 bitrate=   2.1kbits/s speed=0.0191x elapsed=0:01:53.15    \nframe=  131 fps=1.2 q=38.0 size=       1KiB time=00:00:02.16 bitrate=   2.1kbits/s speed=0.0191x elapsed=0:01:53.66    \nframe=  132 fps=1.2 q=37.0 size=       1KiB time=00:00:02.18 bitrate=   2.1kbits/s speed=0.0191x elapsed=0:01:54.18    \nframe=  135 fps=1.2 q=38.0 size=       1KiB time=00:00:02.23 bitrate=   2.0kbits/s speed=0.0195x elapsed=0:01:54.70    \nframe=  135 fps=1.2 q=38.0 size=       1KiB time=00:00:02.23 bitrate=   2.0kbits/s speed=0.0194x elapsed=0:01:55.21    \nframe=  136 fps=1.2 q=37.0 size=       1KiB time=00:00:02.25 bitrate=   2.0kbits/s speed=0.0194x elapsed=0:01:55.72    \nframe=  136 fps=1.2 q=37.0 size=       1KiB time=00:00:02.25 bitrate=   2.0kbits/s speed=0.0194x elapsed=0:01:56.24    \nframe=  137 fps=1.2 q=29.0 size=       1KiB time=00:00:02.26 bitrate=   2.0kbits/s speed=0.0194x elapsed=0:01:56.76    \nframe=  138 fps=1.2 q=37.0 size=       1KiB time=00:00:02.28 bitrate=   2.0kbits/s speed=0.0195x elapsed=0:01:57.28    \nframe=  138 fps=1.2 q=37.0 size=       1KiB time=00:00:02.28 bitrate=   2.0kbits/s speed=0.0194x elapsed=0:01:57.79    \nframe=  140 fps=1.2 q=37.0 size=       1KiB time=00:00:02.31 bitrate=   1.9kbits/s speed=0.0196x elapsed=0:01:58.31    \nframe=  140 fps=1.2 q=37.0 size=       1KiB time=00:00:02.31 bitrate=   1.9kbits/s speed=0.0195x elapsed=0:01:58.81    \nframe=  141 fps=1.2 q=38.0 size=       1KiB time=00:00:02.33 bitrate=   1.9kbits/s speed=0.0196x elapsed=0:01:59.33    \nframe=  142 fps=1.2 q=37.0 size=       1KiB time=00:00:02.35 bitrate=   1.9kbits/s speed=0.0196x elapsed=0:01:59.85    \nframe=  144 fps=1.2 q=37.0 size=       1KiB time=00:00:02.38 bitrate=   1.9kbits/s speed=0.0198x elapsed=0:02:00.37    \nframe=  144 fps=1.2 q=37.0 size=       1KiB time=00:00:02.38 bitrate=   1.9kbits/s speed=0.0197x elapsed=0:02:00.89    \nframe=  145 fps=1.2 q=20.0 size=       1KiB time=00:00:02.40 bitrate=   1.9kbits/s speed=0.0198x elapsed=0:02:01.39    \nframe=  146 fps=1.2 q=37.0 size=       1KiB time=00:00:02.41 bitrate=   1.9kbits/s speed=0.0198x elapsed=0:02:01.91    \nframe=  146 fps=1.2 q=37.0 size=       1KiB time=00:00:02.41 bitrate=   1.9kbits/s speed=0.0197x elapsed=0:02:02.42    \nframe=  147 fps=1.2 q=37.0 size=       1KiB time=00:00:02.43 bitrate=   1.8kbits/s speed=0.0198x elapsed=0:02:02.94    \nframe=  148 fps=1.2 q=37.0 size=       1KiB time=00:00:02.45 bitrate=   1.8kbits/s speed=0.0198x elapsed=0:02:03.46    \nframe=  150 fps=1.2 q=37.0 size=       1KiB time=00:00:02.48 bitrate=   1.8kbits/s speed=0.02x elapsed=0:02:03.97    \nframe=  151 fps=1.2 q=37.0 size=       1KiB time=00:00:02.50 bitrate=   1.8kbits/s speed=0.0201x elapsed=0:02:04.49    \nframe=  152 fps=1.2 q=37.0 size=       1KiB time=00:00:02.51 bitrate=   1.8kbits/s speed=0.0201x elapsed=0:02:05.01    \nframe=  152 fps=1.2 q=37.0 size=       1KiB time=00:00:02.51 bitrate=   1.8kbits/s speed=0.02x elapsed=0:02:05.53    \nframe=  153 fps=1.2 q=29.0 size=       1KiB time=00:00:02.53 bitrate=   1.8kbits/s speed=0.0201x elapsed=0:02:06.06    \nframe=  154 fps=1.2 q=36.0 size=       1KiB time=00:00:02.55 bitrate=   1.8kbits/s speed=0.0201x elapsed=0:02:06.56    \nframe=  155 fps=1.2 q=36.0 size=       1KiB time=00:00:02.56 bitrate=   1.7kbits/s speed=0.0202x elapsed=0:02:07.09    \nframe=  156 fps=1.2 q=36.0 size=       1KiB time=00:00:02.58 bitrate=   1.7kbits/s speed=0.0202x elapsed=0:02:07.59    \nframe=  157 fps=1.2 q=36.0 size=       1KiB time=00:00:02.60 bitrate=   1.7kbits/s speed=0.0203x elapsed=0:02:08.12    \nframe=  157 fps=1.2 q=36.0 size=       1KiB time=00:00:02.60 bitrate=   1.7kbits/s speed=0.0202x elapsed=0:02:08.63    \nframe=  159 fps=1.2 q=36.0 size=       1KiB time=00:00:02.63 bitrate=   1.7kbits/s speed=0.0204x elapsed=0:02:09.15    \nframe=  160 fps=1.2 q=36.0 size=       1KiB time=00:00:02.65 bitrate=   1.7kbits/s speed=0.0204x elapsed=0:02:09.67    \nframe=  161 fps=1.2 q=21.0 size=       1KiB time=00:00:02.66 bitrate=   1.7kbits/s speed=0.0205x elapsed=0:02:10.18    \nframe=  162 fps=1.2 q=36.0 size=       1KiB time=00:00:02.68 bitrate=   1.7kbits/s speed=0.0205x elapsed=0:02:10.70    \nframe=  163 fps=1.2 q=36.0 size=       1KiB time=00:00:02.70 bitrate=   1.7kbits/s speed=0.0206x elapsed=0:02:11.21    \nframe=  163 fps=1.2 q=36.0 size=       1KiB time=00:00:02.70 bitrate=   1.7kbits/s speed=0.0205x elapsed=0:02:11.72    \nframe=  163 fps=1.2 q=36.0 size=       1KiB time=00:00:02.70 bitrate=   1.7kbits/s speed=0.0204x elapsed=0:02:12.24    \nframe=  164 fps=1.2 q=36.0 size=       1KiB time=00:00:02.71 bitrate=   1.6kbits/s speed=0.0205x elapsed=0:02:12.75    \nframe=  165 fps=1.2 q=36.0 size=       1KiB time=00:00:02.73 bitrate=   1.6kbits/s speed=0.0205x elapsed=0:02:13.27    \nframe=  166 fps=1.2 q=36.0 size=       1KiB time=00:00:02.73 bitrate=   1.6kbits/s speed=0.0204x elapsed=0:02:13.78    \nframe=  166 fps=1.2 q=36.0 size=       1KiB time=00:00:02.75 bitrate=   1.6kbits/s speed=0.0205x elapsed=0:02:14.38    \nframe=  167 fps=1.2 q=36.0 size=       1KiB time=00:00:02.76 bitrate=   1.6kbits/s speed=0.0205x elapsed=0:02:14.89    \nframe=  168 fps=1.2 q=36.0 size=       1KiB time=00:00:02.78 bitrate=   1.6kbits/s speed=0.0206x elapsed=0:02:15.43    \nframe=  168 fps=1.2 q=36.0 size=       1KiB time=00:00:02.78 bitrate=   1.6kbits/s speed=0.0205x elapsed=0:02:15.94    \nframe=  170 fps=1.2 q=36.0 size=       1KiB time=00:00:02.81 bitrate=   1.6kbits/s speed=0.0206x elapsed=0:02:16.49    \nframe=  171 fps=1.2 q=36.0 size=       1KiB time=00:00:02.83 bitrate=   1.6kbits/s speed=0.0207x elapsed=0:02:17.02    \nframe=  172 fps=1.3 q=36.0 size=       1KiB time=00:00:02.85 bitrate=   1.6kbits/s speed=0.0207x elapsed=0:02:17.54    \nframe=  173 fps=1.3 q=36.0 size=       1KiB time=00:00:02.86 bitrate=   1.6kbits/s speed=0.0208x elapsed=0:02:18.06    \nframe=  175 fps=1.3 q=36.0 size=       1KiB time=00:00:02.90 bitrate=   1.5kbits/s speed=0.0209x elapsed=0:02:18.63    \nframe=  176 fps=1.3 q=36.0 size=       1KiB time=00:00:02.91 bitrate=   1.5kbits/s speed=0.0209x elapsed=0:02:19.24    \nframe=  176 fps=1.3 q=36.0 size=       1KiB time=00:00:02.91 bitrate=   1.5kbits/s speed=0.0208x elapsed=0:02:19.90    \nframe=  177 fps=1.3 q=20.0 size=       1KiB time=00:00:02.93 bitrate=   1.5kbits/s speed=0.0209x elapsed=0:02:20.41    \nframe=  179 fps=1.3 q=36.0 size=       1KiB time=00:00:02.96 bitrate=   1.5kbits/s speed=0.021x elapsed=0:02:20.93    \nframe=  179 fps=1.3 q=36.0 size=       1KiB time=00:00:02.96 bitrate=   1.5kbits/s speed=0.021x elapsed=0:02:21.44    \nframe=  180 fps=1.3 q=36.0 size=       1KiB time=00:00:02.98 bitrate=   1.5kbits/s speed=0.021x elapsed=0:02:21.96    \nframe=  181 fps=1.3 q=36.0 size=       1KiB time=00:00:03.00 bitrate=   1.5kbits/s speed=0.0211x elapsed=0:02:22.47    \nframe=  182 fps=1.3 q=36.0 size=       1KiB time=00:00:03.01 bitrate=   1.5kbits/s speed=0.0211x elapsed=0:02:22.99    \nframe=  182 fps=1.3 q=36.0 size=       1KiB time=00:00:03.01 bitrate=   1.5kbits/s speed=0.021x elapsed=0:02:23.50    \nframe=  184 fps=1.3 q=36.0 size=       1KiB time=00:00:03.05 bitrate=   1.5kbits/s speed=0.0212x elapsed=0:02:24.02    \nframe=  184 fps=1.3 q=36.0 size=       1KiB time=00:00:03.05 bitrate=   1.5kbits/s speed=0.0211x elapsed=0:02:24.54    \nframe=  185 fps=1.3 q=28.0 size=       1KiB time=00:00:03.06 bitrate=   1.5kbits/s speed=0.0211x elapsed=0:02:25.05    \nframe=  187 fps=1.3 q=36.0 size=       1KiB time=00:00:03.10 bitrate=   1.4kbits/s speed=0.0213x elapsed=0:02:25.57    \nframe=  188 fps=1.3 q=36.0 size=       1KiB time=00:00:03.11 bitrate=   1.4kbits/s speed=0.0213x elapsed=0:02:26.08    \nframe=  188 fps=1.3 q=36.0 size=       1KiB time=00:00:03.11 bitrate=   1.4kbits/s speed=0.0213x elapsed=0:02:26.60    \nframe=  190 fps=1.3 q=35.0 size=       1KiB time=00:00:03.15 bitrate=   1.4kbits/s speed=0.0214x elapsed=0:02:27.12    \nframe=  190 fps=1.3 q=35.0 size=       1KiB time=00:00:03.15 bitrate=   1.4kbits/s speed=0.0213x elapsed=0:02:27.63    \nframe=  191 fps=1.3 q=33.0 size=       1KiB time=00:00:03.16 bitrate=   1.4kbits/s speed=0.0214x elapsed=0:02:28.15    \nframe=  192 fps=1.3 q=35.0 size=       1KiB time=00:00:03.18 bitrate=   1.4kbits/s speed=0.0214x elapsed=0:02:28.66    \nframe=  192 fps=1.3 q=35.0 size=       1KiB time=00:00:03.18 bitrate=   1.4kbits/s speed=0.0213x elapsed=0:02:29.17    \nframe=  193 fps=1.3 q=19.0 size=       1KiB time=00:00:03.20 bitrate=   1.4kbits/s speed=0.0214x elapsed=0:02:29.70    \nframe=  194 fps=1.3 q=37.0 size=       1KiB time=00:00:03.21 bitrate=   1.4kbits/s speed=0.0214x elapsed=0:02:30.21    \nframe=  195 fps=1.3 q=36.0 size=       1KiB time=00:00:03.23 bitrate=   1.4kbits/s speed=0.0215x elapsed=0:02:30.73    \nframe=  196 fps=1.3 q=37.0 size=       1KiB time=00:00:03.25 bitrate=   1.4kbits/s speed=0.0215x elapsed=0:02:31.24    \nframe=  197 fps=1.3 q=35.0 size=       1KiB time=00:00:03.26 bitrate=   1.4kbits/s speed=0.0215x elapsed=0:02:31.76    \nframe=  197 fps=1.3 q=35.0 size=       1KiB time=00:00:03.26 bitrate=   1.4kbits/s speed=0.0215x elapsed=0:02:32.26    \nframe=  198 fps=1.3 q=37.0 size=       1KiB time=00:00:03.28 bitrate=   1.4kbits/s speed=0.0215x elapsed=0:02:32.79    \nframe=  199 fps=1.3 q=36.0 size=       1KiB time=00:00:03.30 bitrate=   1.4kbits/s speed=0.0215x elapsed=0:02:33.30    \nframe=  200 fps=1.3 q=37.0 size=       1KiB time=00:00:03.31 bitrate=   1.4kbits/s speed=0.0216x elapsed=0:02:33.83    \nframe=  201 fps=1.3 q=28.0 size=       1KiB time=00:00:03.33 bitrate=   1.3kbits/s speed=0.0216x elapsed=0:02:34.33    \nframe=  202 fps=1.3 q=37.0 size=       1KiB time=00:00:03.35 bitrate=   1.3kbits/s speed=0.0216x elapsed=0:02:34.85    \nframe=  204 fps=1.3 q=37.0 size=       1KiB time=00:00:03.38 bitrate=   1.3kbits/s speed=0.0218x elapsed=0:02:35.36    \nframe=  204 fps=1.3 q=37.0 size=       1KiB time=00:00:03.38 bitrate=   1.3kbits/s speed=0.0217x elapsed=0:02:35.89    \nframe=  205 fps=1.3 q=35.0 size=       1KiB time=00:00:03.40 bitrate=   1.3kbits/s speed=0.0217x elapsed=0:02:36.39    \nframe=  206 fps=1.3 q=35.0 size=       1KiB time=00:00:03.41 bitrate=   1.3kbits/s speed=0.0218x elapsed=0:02:36.91    \nframe=  208 fps=1.3 q=35.0 size=       1KiB time=00:00:03.45 bitrate=   1.3kbits/s speed=0.0219x elapsed=0:02:37.43    \nframe=  208 fps=1.3 q=35.0 size=       1KiB time=00:00:03.45 bitrate=   1.3kbits/s speed=0.0218x elapsed=0:02:37.94    \nframe=  209 fps=1.3 q=19.0 size=       1KiB time=00:00:03.46 bitrate=   1.3kbits/s speed=0.0219x elapsed=0:02:38.46    \nframe=  211 fps=1.3 q=36.0 size=       1KiB time=00:00:03.50 bitrate=   1.3kbits/s speed=0.022x elapsed=0:02:38.97    \nframe=  211 fps=1.3 q=36.0 size=       1KiB time=00:00:03.50 bitrate=   1.3kbits/s speed=0.0219x elapsed=0:02:39.49    \nframe=  212 fps=1.3 q=37.0 size=       1KiB time=00:00:03.51 bitrate=   1.3kbits/s speed=0.022x elapsed=0:02:40.00    \nframe=  213 fps=1.3 q=35.0 size=       1KiB time=00:00:03.53 bitrate=   1.3kbits/s speed=0.022x elapsed=0:02:40.53    \nframe=  213 fps=1.3 q=35.0 size=       1KiB time=00:00:03.53 bitrate=   1.3kbits/s speed=0.0219x elapsed=0:02:41.03    \nframe=  215 fps=1.3 q=36.0 size=       1KiB time=00:00:03.56 bitrate=   1.3kbits/s speed=0.0221x elapsed=0:02:41.55    \nframe=  215 fps=1.3 q=36.0 size=       1KiB time=00:00:03.56 bitrate=   1.3kbits/s speed=0.022x elapsed=0:02:42.06    \nframe=  216 fps=1.3 q=37.0 size=       1KiB time=00:00:03.58 bitrate=   1.3kbits/s speed=0.022x elapsed=0:02:42.59    \nframe=  216 fps=1.3 q=37.0 size=       1KiB time=00:00:03.58 bitrate=   1.3kbits/s speed=0.022x elapsed=0:02:43.10    \nframe=  218 fps=1.3 q=37.0 size=       1KiB time=00:00:03.60 bitrate=   1.2kbits/s speed=0.022x elapsed=0:02:43.71    \nframe=  220 fps=1.3 q=37.0 size=       1KiB time=00:00:03.65 bitrate=   1.2kbits/s speed=0.0222x elapsed=0:02:44.52    \nframe=  222 fps=1.3 q=37.0 size=       1KiB time=00:00:03.68 bitrate=   1.2kbits/s speed=0.0223x elapsed=0:02:45.30    \nframe=  225 fps=1.4 q=19.0 size=       1KiB time=00:00:03.71 bitrate=   1.2kbits/s speed=0.0224x elapsed=0:02:46.21    \nframe=  227 fps=1.4 q=36.0 size=       1KiB time=00:00:03.76 bitrate=   1.2kbits/s speed=0.0225x elapsed=0:02:47.03    \nframe=  229 fps=1.4 q=34.0 size=       1KiB time=00:00:03.78 bitrate=   1.2kbits/s speed=0.0225x elapsed=0:02:47.90    \nframe=  230 fps=1.4 q=37.0 size=       1KiB time=00:00:03.81 bitrate=   1.2kbits/s speed=0.0226x elapsed=0:02:48.68    \nframe=  230 fps=1.4 q=37.0 size=       1KiB time=00:00:03.81 bitrate=   1.2kbits/s speed=0.0226x elapsed=0:02:49.19    \nframe=  232 fps=1.4 q=37.0 size=       1KiB time=00:00:03.85 bitrate=   1.2kbits/s speed=0.0227x elapsed=0:02:49.71    \nframe=  232 fps=1.4 q=37.0 size=       1KiB time=00:00:03.85 bitrate=   1.2kbits/s speed=0.0226x elapsed=0:02:50.38    \nframe=  233 fps=1.4 q=29.0 size=       1KiB time=00:00:03.86 bitrate=   1.2kbits/s speed=0.0226x elapsed=0:02:51.08    \nframe=  235 fps=1.4 q=36.0 size=       1KiB time=00:00:03.88 bitrate=   1.2kbits/s speed=0.0226x elapsed=0:02:51.73    \nframe=  235 fps=1.4 q=36.0 size=       1KiB time=00:00:03.90 bitrate=   1.1kbits/s speed=0.0226x elapsed=0:02:52.51    \nframe=  236 fps=1.4 q=33.0 size=       1KiB time=00:00:03.91 bitrate=   1.1kbits/s speed=0.0226x elapsed=0:02:53.02    \nframe=  237 fps=1.4 q=34.0 size=       1KiB time=00:00:03.93 bitrate=   1.1kbits/s speed=0.0227x elapsed=0:02:53.54    \nframe=  239 fps=1.4 q=33.0 size=       1KiB time=00:00:03.96 bitrate=   1.1kbits/s speed=0.0228x elapsed=0:02:54.07    \nframe=  239 fps=1.4 q=33.0 size=       1KiB time=00:00:03.96 bitrate=   1.1kbits/s speed=0.0227x elapsed=0:02:54.59    \nframe=  240 fps=1.4 q=35.0 size=       1KiB time=00:00:03.98 bitrate=   1.1kbits/s speed=0.0227x elapsed=0:02:55.10    \nframe=  241 fps=1.4 q=20.0 size=       1KiB time=00:00:04.00 bitrate=   1.1kbits/s speed=0.0228x elapsed=0:02:55.61    \nframe=  242 fps=1.4 q=37.0 size=       1KiB time=00:00:04.01 bitrate=   1.1kbits/s speed=0.0228x elapsed=0:02:56.14    \nframe=  243 fps=1.4 q=36.0 size=       1KiB time=00:00:04.03 bitrate=   1.1kbits/s speed=0.0228x elapsed=0:02:56.66    \nframe=  244 fps=1.4 q=37.0 size=       1KiB time=00:00:04.05 bitrate=   1.1kbits/s speed=0.0229x elapsed=0:02:57.17    \nframe=  245 fps=1.4 q=34.0 size=       1KiB time=00:00:04.06 bitrate=   1.1kbits/s speed=0.0229x elapsed=0:02:57.70    \nframe=  247 fps=1.4 q=36.0 size=       1KiB time=00:00:04.10 bitrate=   1.1kbits/s speed=0.023x elapsed=0:02:58.22    \nframe=  247 fps=1.4 q=36.0 size=       1KiB time=00:00:04.10 bitrate=   1.1kbits/s speed=0.0229x elapsed=0:02:58.72    \nframe=  248 fps=1.4 q=37.0 size=       1KiB time=00:00:04.11 bitrate=   1.1kbits/s speed=0.023x elapsed=0:02:59.23    \nframe=  248 fps=1.4 q=37.0 size=       1KiB time=00:00:04.11 bitrate=   1.1kbits/s speed=0.0229x elapsed=0:02:59.76    \nframe=  250 fps=1.4 q=37.0 size=       1KiB time=00:00:04.15 bitrate=   1.1kbits/s speed=0.023x elapsed=0:03:00.28    \nframe=  251 fps=1.4 q=36.0 size=       1KiB time=00:00:04.16 bitrate=   1.1kbits/s speed=0.023x elapsed=0:03:00.79    \nframe=  252 fps=1.4 q=37.0 size=       1KiB time=00:00:04.18 bitrate=   1.1kbits/s speed=0.0231x elapsed=0:03:01.31    \nframe=  253 fps=1.4 q=34.0 size=       1KiB time=00:00:04.20 bitrate=   1.1kbits/s speed=0.0231x elapsed=0:03:01.82    \nframe=  254 fps=1.4 q=36.0 size=       1KiB time=00:00:04.21 bitrate=   1.1kbits/s speed=0.0231x elapsed=0:03:02.33    \nframe=  255 fps=1.4 q=34.0 size=       1KiB time=00:00:04.23 bitrate=   1.1kbits/s speed=0.0232x elapsed=0:03:02.86    \nframe=  255 fps=1.4 q=34.0 size=       1KiB time=00:00:04.23 bitrate=   1.1kbits/s speed=0.0231x elapsed=0:03:03.37    \nframe=  256 fps=1.4 q=36.0 size=       1KiB time=00:00:04.25 bitrate=   1.1kbits/s speed=0.0231x elapsed=0:03:03.89    \nframe=  258 fps=1.4 q=38.0 size=       1KiB time=00:00:04.28 bitrate=   1.0kbits/s speed=0.0232x elapsed=0:03:04.40    \nframe=  258 fps=1.4 q=38.0 size=       1KiB time=00:00:04.28 bitrate=   1.0kbits/s speed=0.0232x elapsed=0:03:04.91    \nframe=  260 fps=1.4 q=38.0 size=       1KiB time=00:00:04.31 bitrate=   1.0kbits/s speed=0.0233x elapsed=0:03:05.42    \nframe=  262 fps=1.4 q=38.0 size=       1KiB time=00:00:04.35 bitrate=   1.0kbits/s speed=0.0234x elapsed=0:03:05.94    \nframe=  262 fps=1.4 q=38.0 size=       1KiB time=00:00:04.35 bitrate=   1.0kbits/s speed=0.0233x elapsed=0:03:06.46    \nframe=  263 fps=1.4 q=37.0 size=       1KiB time=00:00:04.36 bitrate=   1.0kbits/s speed=0.0234x elapsed=0:03:06.98    \nframe=  264 fps=1.4 q=38.0 size=       1KiB time=00:00:04.38 bitrate=   1.0kbits/s speed=0.0234x elapsed=0:03:07.50    \nframe=  266 fps=1.4 q=38.0 size=       1KiB time=00:00:04.41 bitrate=   1.0kbits/s speed=0.0235x elapsed=0:03:08.00    \nframe=  267 fps=1.4 q=37.0 size=       1KiB time=00:00:04.43 bitrate=   1.0kbits/s speed=0.0235x elapsed=0:03:08.52    \nframe=  267 fps=1.4 q=37.0 size=       1KiB time=00:00:04.43 bitrate=   1.0kbits/s speed=0.0234x elapsed=0:03:09.06    \nframe=  268 fps=1.4 q=38.0 size=       1KiB time=00:00:04.45 bitrate=   1.0kbits/s speed=0.0235x elapsed=0:03:09.65    \nframe=  269 fps=1.4 q=35.0 size=       1KiB time=00:00:04.45 bitrate=   1.0kbits/s speed=0.0234x elapsed=0:03:10.36    \nframe=  271 fps=1.4 q=35.0 size=       1KiB time=00:00:04.50 bitrate=   1.0kbits/s speed=0.0236x elapsed=0:03:11.04    \nframe=  271 fps=1.4 q=35.0 size=       1KiB time=00:00:04.50 bitrate=   1.0kbits/s speed=0.0235x elapsed=0:03:11.61    \nframe=  272 fps=1.4 q=37.0 size=       1KiB time=00:00:04.51 bitrate=   1.0kbits/s speed=0.0235x elapsed=0:03:12.19    \nframe=  273 fps=1.4 q=20.0 size=       1KiB time=00:00:04.53 bitrate=   1.0kbits/s speed=0.0235x elapsed=0:03:12.73    \nframe=  274 fps=1.4 q=38.0 size=       1KiB time=00:00:04.55 bitrate=   1.0kbits/s speed=0.0235x elapsed=0:03:13.25    \nframe=  275 fps=1.4 q=37.0 size=       1KiB time=00:00:04.56 bitrate=   1.0kbits/s speed=0.0236x elapsed=0:03:13.77    \nframe=  276 fps=1.4 q=38.0 size=       1KiB time=00:00:04.58 bitrate=   1.0kbits/s speed=0.0236x elapsed=0:03:14.28    \nframe=  277 fps=1.4 q=35.0 size=       1KiB time=00:00:04.60 bitrate=   1.0kbits/s speed=0.0236x elapsed=0:03:14.82    \nframe=  277 fps=1.4 q=35.0 size=       1KiB time=00:00:04.60 bitrate=   1.0kbits/s speed=0.0235x elapsed=0:03:15.33    \nframe=  279 fps=1.4 q=37.0 size=       1KiB time=00:00:04.63 bitrate=   1.0kbits/s speed=0.0237x elapsed=0:03:15.85    \nframe=  280 fps=1.4 q=38.0 size=       1KiB time=00:00:04.65 bitrate=   1.0kbits/s speed=0.0237x elapsed=0:03:16.37    \nframe=  281 fps=1.4 q=29.0 size=       1KiB time=00:00:04.66 bitrate=   1.0kbits/s speed=0.0237x elapsed=0:03:16.90    \nframe=  283 fps=1.4 q=38.0 size=       1KiB time=00:00:04.70 bitrate=   1.0kbits/s speed=0.0238x elapsed=0:03:17.45    \nframe=  284 fps=1.4 q=39.0 size=       1KiB time=00:00:04.71 bitrate=   0.9kbits/s speed=0.0238x elapsed=0:03:17.96    \nframe=  286 fps=1.4 q=38.0 size=       1KiB time=00:00:04.75 bitrate=   0.9kbits/s speed=0.0239x elapsed=0:03:18.61    \nframe=  287 fps=1.4 q=35.0 size=       1KiB time=00:00:04.76 bitrate=   0.9kbits/s speed=0.0239x elapsed=0:03:19.18    \nframe=  290 fps=1.5 q=40.0 size=       1KiB time=00:00:04.81 bitrate=   0.9kbits/s speed=0.0241x elapsed=0:03:19.73    \nframe=  290 fps=1.4 q=40.0 size=       1KiB time=00:00:04.81 bitrate=   0.9kbits/s speed=0.0241x elapsed=0:03:20.26    \nframe=  293 fps=1.5 q=35.0 size=       1KiB time=00:00:04.86 bitrate=   0.9kbits/s speed=0.0242x elapsed=0:03:20.78    \nframe=  293 fps=1.5 q=35.0 size=       1KiB time=00:00:04.86 bitrate=   0.9kbits/s speed=0.0242x elapsed=0:03:21.34    \nframe=  294 fps=1.5 q=40.0 size=       1KiB time=00:00:04.88 bitrate=   0.9kbits/s speed=0.0242x elapsed=0:03:21.92    \nframe=  296 fps=1.5 q=40.0 size=       1KiB time=00:00:04.91 bitrate=   0.9kbits/s speed=0.0243x elapsed=0:03:22.51    \nframe=  297 fps=1.5 q=30.0 size=       1KiB time=00:00:04.93 bitrate=   0.9kbits/s speed=0.0243x elapsed=0:03:23.05    \nframe=  298 fps=1.5 q=40.0 size=       1KiB time=00:00:04.95 bitrate=   0.9kbits/s speed=0.0243x elapsed=0:03:23.67    \nframe=  301 fps=1.5 q=36.0 size=       1KiB time=00:00:05.00 bitrate=   0.9kbits/s speed=0.0245x elapsed=0:03:24.27    \nframe=  303 fps=1.5 q=35.0 size=    2304KiB time=00:00:05.01 bitrate=3762.3kbits/s speed=0.0245x elapsed=0:03:24.85    \nframe=  303 fps=1.5 q=35.0 size=    2304KiB time=00:00:05.03 bitrate=3749.9kbits/s speed=0.0245x elapsed=0:03:25.44    \nframe=  305 fps=1.5 q=20.0 size=    2304KiB time=00:00:05.06 bitrate=3725.2kbits/s speed=0.0246x elapsed=0:03:26.09    \nframe=  306 fps=1.5 q=41.0 size=    2304KiB time=00:00:05.08 bitrate=3713.0kbits/s speed=0.0246x elapsed=0:03:26.69    \nframe=  309 fps=1.5 q=38.0 size=    2304KiB time=00:00:05.13 bitrate=3676.8kbits/s speed=0.0248x elapsed=0:03:27.23    \nframe=  309 fps=1.5 q=38.0 size=    2304KiB time=00:00:05.13 bitrate=3676.8kbits/s speed=0.0247x elapsed=0:03:27.77    \nframe=  310 fps=1.5 q=41.0 size=    2304KiB time=00:00:05.15 bitrate=3664.9kbits/s speed=0.0247x elapsed=0:03:28.29    \nframe=  312 fps=1.5 q=41.0 size=    2304KiB time=00:00:05.18 bitrate=3641.4kbits/s speed=0.0248x elapsed=0:03:28.82    \nframe=  314 fps=1.5 q=41.0 size=    2304KiB time=00:00:05.21 bitrate=3618.1kbits/s speed=0.0249x elapsed=0:03:29.37    \nframe=  316 fps=1.5 q=41.0 size=    2304KiB time=00:00:05.25 bitrate=3595.1kbits/s speed=0.025x elapsed=0:03:29.91    \nframe=  316 fps=1.5 q=41.0 size=    2304KiB time=00:00:05.25 bitrate=3595.1kbits/s speed=0.0249x elapsed=0:03:30.44    \nframe=  316 fps=1.5 q=41.0 size=    2304KiB time=00:00:05.25 bitrate=3595.1kbits/s speed=0.0249x elapsed=0:03:31.03    \nframe=  316 fps=1.5 q=41.0 size=    2304KiB time=00:00:05.25 bitrate=3595.1kbits/s speed=0.0248x elapsed=0:03:31.56    \nframe=  316 fps=1.5 q=41.0 size=    2304KiB time=00:00:05.25 bitrate=3595.1kbits/s speed=0.0247x elapsed=0:03:32.13    \nframe=  316 fps=1.5 q=41.0 size=    2304KiB time=00:00:05.25 bitrate=3595.1kbits/s speed=0.0247x elapsed=0:03:32.70    \nframe=  316 fps=1.5 q=41.0 size=    2304KiB time=00:00:05.25 bitrate=3595.1kbits/s speed=0.0246x elapsed=0:03:33.30    \nframe=  316 fps=1.5 q=41.0 size=    2304KiB time=00:00:05.25 bitrate=3595.1kbits/s speed=0.0246x elapsed=0:03:33.84    \nframe=  316 fps=1.5 q=41.0 size=    2304KiB time=00:00:05.25 bitrate=3595.1kbits/s speed=0.0245x elapsed=0:03:34.48    \nframe=  317 fps=1.5 q=38.0 size=    2304KiB time=00:00:05.26 bitrate=3583.7kbits/s speed=0.0245x elapsed=0:03:35.11    \nframe=  317 fps=1.5 q=38.0 size=    2304KiB time=00:00:05.26 bitrate=3583.7kbits/s speed=0.0244x elapsed=0:03:35.64    \nframe=  317 fps=1.5 q=38.0 size=    2304KiB time=00:00:05.26 bitrate=3583.7kbits/s speed=0.0244x elapsed=0:03:36.15    \nframe=  317 fps=1.5 q=38.0 size=    2304KiB time=00:00:05.26 bitrate=3583.7kbits/s speed=0.0243x elapsed=0:03:36.68    \nframe=  317 fps=1.5 q=38.0 size=    2304KiB time=00:00:05.26 bitrate=3583.7kbits/s speed=0.0242x elapsed=0:03:37.22    \nframe=  317 fps=1.5 q=38.0 size=    2304KiB time=00:00:05.26 bitrate=3583.7kbits/s speed=0.0242x elapsed=0:03:37.77    \nframe=  317 fps=1.5 q=38.0 size=    2304KiB time=00:00:05.26 bitrate=3583.7kbits/s speed=0.0241x elapsed=0:03:38.32    \nframe=  318 fps=1.5 q=41.0 size=    2304KiB time=00:00:05.28 bitrate=3572.4kbits/s speed=0.0241x elapsed=0:03:38.83    \nframe=  318 fps=1.4 q=41.0 size=    2304KiB time=00:00:05.28 bitrate=3572.4kbits/s speed=0.0241x elapsed=0:03:39.37    \nframe=  319 fps=1.5 q=40.0 size=    2304KiB time=00:00:05.30 bitrate=3561.2kbits/s speed=0.0241x elapsed=0:03:39.88    \nframe=  319 fps=1.4 q=40.0 size=    2304KiB time=00:00:05.30 bitrate=3561.2kbits/s speed=0.024x elapsed=0:03:40.40    \nframe=  321 fps=1.5 q=29.0 size=    2304KiB time=00:00:05.33 bitrate=3538.9kbits/s speed=0.0241x elapsed=0:03:40.94    \nframe=  323 fps=1.5 q=42.0 size=    2304KiB time=00:00:05.36 bitrate=3517.0kbits/s speed=0.0242x elapsed=0:03:41.47    \nframe=  323 fps=1.5 q=42.0 size=    2304KiB time=00:00:05.36 bitrate=3517.0kbits/s speed=0.0242x elapsed=0:03:42.02    \nframe=  326 fps=1.5 q=39.0 size=    2304KiB time=00:00:05.41 bitrate=3484.5kbits/s speed=0.0243x elapsed=0:03:42.57    \nframe=  327 fps=1.5 q=42.0 size=    2304KiB time=00:00:05.43 bitrate=3473.8kbits/s speed=0.0244x elapsed=0:03:43.10    \nframe=  328 fps=1.5 q=41.0 size=    2304KiB time=00:00:05.45 bitrate=3463.2kbits/s speed=0.0244x elapsed=0:03:43.64    \nframe=  330 fps=1.5 q=32.0 size=    2304KiB time=00:00:05.48 bitrate=3442.1kbits/s speed=0.0244x elapsed=0:03:44.26    \nframe=  330 fps=1.5 q=32.0 size=    2304KiB time=00:00:05.48 bitrate=3442.1kbits/s speed=0.0244x elapsed=0:03:44.89    \nframe=  331 fps=1.5 q=41.0 size=    2304KiB time=00:00:05.50 bitrate=3431.7kbits/s speed=0.0244x elapsed=0:03:45.40    \nframe=  333 fps=1.5 q=41.0 size=    2304KiB time=00:00:05.53 bitrate=3411.0kbits/s speed=0.0245x elapsed=0:03:45.91    \nframe=  333 fps=1.5 q=41.0 size=    2304KiB time=00:00:05.53 bitrate=3411.0kbits/s speed=0.0244x elapsed=0:03:46.44    \nframe=  334 fps=1.5 q=38.0 size=    2304KiB time=00:00:05.55 bitrate=3400.8kbits/s speed=0.0245x elapsed=0:03:46.97    \nframe=  334 fps=1.5 q=38.0 size=    2304KiB time=00:00:05.55 bitrate=3400.8kbits/s speed=0.0244x elapsed=0:03:47.47    \nframe=  335 fps=1.5 q=41.0 size=    2304KiB time=00:00:05.56 bitrate=3390.6kbits/s speed=0.0244x elapsed=0:03:48.00    \nframe=  335 fps=1.5 q=41.0 size=    2304KiB time=00:00:05.56 bitrate=3390.6kbits/s speed=0.0244x elapsed=0:03:48.50    \nframe=  336 fps=1.5 q=40.0 size=    2304KiB time=00:00:05.58 bitrate=3380.5kbits/s speed=0.0244x elapsed=0:03:49.02    \nframe=  339 fps=1.5 q=41.0 size=    2304KiB time=00:00:05.63 bitrate=3350.5kbits/s speed=0.0245x elapsed=0:03:49.54    \nframe=  339 fps=1.5 q=41.0 size=    2304KiB time=00:00:05.63 bitrate=3350.5kbits/s speed=0.0245x elapsed=0:03:50.05    \nframe=  340 fps=1.5 q=40.0 size=    2304KiB time=00:00:05.65 bitrate=3340.6kbits/s speed=0.0245x elapsed=0:03:50.57    \nframe=  342 fps=1.5 q=38.0 size=    2304KiB time=00:00:05.68 bitrate=3321.0kbits/s speed=0.0246x elapsed=0:03:51.09    \nframe=  342 fps=1.5 q=38.0 size=    2304KiB time=00:00:05.68 bitrate=3321.0kbits/s speed=0.0245x elapsed=0:03:51.60    \nframe=  343 fps=1.5 q=41.0 size=    2304KiB time=00:00:05.70 bitrate=3311.3kbits/s speed=0.0246x elapsed=0:03:52.12    \nframe=  345 fps=1.5 q=41.0 size=    2304KiB time=00:00:05.73 bitrate=3292.0kbits/s speed=0.0246x elapsed=0:03:52.63    \nframe=  346 fps=1.5 q=33.0 size=    2304KiB time=00:00:05.75 bitrate=3282.5kbits/s speed=0.0247x elapsed=0:03:53.14    \nframe=  347 fps=1.5 q=41.0 size=    2304KiB time=00:00:05.76 bitrate=3273.0kbits/s speed=0.0247x elapsed=0:03:53.66    \nframe=  348 fps=1.5 q=40.0 size=    2304KiB time=00:00:05.78 bitrate=3263.6kbits/s speed=0.0247x elapsed=0:03:54.17    \nframe=  349 fps=1.5 q=41.0 size=    2304KiB time=00:00:05.80 bitrate=3254.2kbits/s speed=0.0247x elapsed=0:03:54.69    \nframe=  349 fps=1.5 q=41.0 size=    2304KiB time=00:00:05.80 bitrate=3254.2kbits/s speed=0.0247x elapsed=0:03:55.21    \nframe=  350 fps=1.5 q=38.0 size=    2304KiB time=00:00:05.81 bitrate=3244.9kbits/s speed=0.0247x elapsed=0:03:55.73    \nframe=  350 fps=1.5 q=38.0 size=    2304KiB time=00:00:05.81 bitrate=3244.9kbits/s speed=0.0246x elapsed=0:03:56.24    \nframe=  351 fps=1.5 q=41.0 size=    2304KiB time=00:00:05.83 bitrate=3235.6kbits/s speed=0.0246x elapsed=0:03:56.76    \nframe=  351 fps=1.5 q=41.0 size=    2304KiB time=00:00:05.83 bitrate=3235.6kbits/s speed=0.0246x elapsed=0:03:57.28    \nframe=  352 fps=1.5 q=40.0 size=    2304KiB time=00:00:05.85 bitrate=3226.4kbits/s speed=0.0246x elapsed=0:03:57.79    \nframe=  352 fps=1.5 q=40.0 size=    2304KiB time=00:00:05.85 bitrate=3226.4kbits/s speed=0.0245x elapsed=0:03:58.30    \nframe=  354 fps=1.5 q=23.0 size=    2304KiB time=00:00:05.88 bitrate=3208.1kbits/s speed=0.0246x elapsed=0:03:58.81    \nframe=  356 fps=1.5 q=40.0 size=    2304KiB time=00:00:05.91 bitrate=3190.0kbits/s speed=0.0247x elapsed=0:03:59.34    \nframe=  358 fps=1.5 q=38.0 size=    2304KiB time=00:00:05.95 bitrate=3172.2kbits/s speed=0.0248x elapsed=0:03:59.85    \nframe=  359 fps=1.5 q=41.0 size=    2304KiB time=00:00:05.96 bitrate=3163.3kbits/s speed=0.0248x elapsed=0:04:00.36    \nframe=  360 fps=1.5 q=40.0 size=    2304KiB time=00:00:05.98 bitrate=3154.5kbits/s speed=0.0248x elapsed=0:04:00.89    \nframe=  361 fps=1.5 q=41.0 size=    2304KiB time=00:00:06.00 bitrate=3145.7kbits/s speed=0.0249x elapsed=0:04:01.40    \nframe=  363 fps=1.5 q=41.0 size=    2304KiB time=00:00:06.03 bitrate=3128.3kbits/s speed=0.0249x elapsed=0:04:01.92    \nframe=  364 fps=1.5 q=40.0 size=    2304KiB time=00:00:06.05 bitrate=3119.7kbits/s speed=0.025x elapsed=0:04:02.43    \nframe=  365 fps=1.5 q=41.0 size=    2304KiB time=00:00:06.06 bitrate=3111.2kbits/s speed=0.025x elapsed=0:04:02.94    \nframe=  367 fps=1.5 q=38.0 size=    2304KiB time=00:00:06.10 bitrate=3094.2kbits/s speed=0.0251x elapsed=0:04:03.46    \nframe=  368 fps=1.5 q=34.0 size=    2304KiB time=00:00:06.11 bitrate=3085.7kbits/s speed=0.0251x elapsed=0:04:03.98    \nframe=  371 fps=1.5 q=41.0 size=    2304KiB time=00:00:06.16 bitrate=3060.7kbits/s speed=0.0252x elapsed=0:04:04.50    \nframe=  372 fps=1.5 q=40.0 size=    2304KiB time=00:00:06.18 bitrate=3052.5kbits/s speed=0.0252x elapsed=0:04:05.00    \nframe=  374 fps=1.5 q=38.0 size=    2304KiB time=00:00:06.21 bitrate=3036.1kbits/s speed=0.0253x elapsed=0:04:05.53    \nframe=  374 fps=1.5 q=38.0 size=    2304KiB time=00:00:06.21 bitrate=3036.1kbits/s speed=0.0253x elapsed=0:04:06.04    \nframe=  376 fps=1.5 q=40.0 size=    2304KiB time=00:00:06.25 bitrate=3019.9kbits/s speed=0.0253x elapsed=0:04:06.56    \nframe=  377 fps=1.5 q=41.0 size=    2304KiB time=00:00:06.26 bitrate=3011.9kbits/s speed=0.0254x elapsed=0:04:07.07    \nframe=  380 fps=1.5 q=40.0 size=    2304KiB time=00:00:06.31 bitrate=2988.0kbits/s speed=0.0255x elapsed=0:04:07.59    \nframe=  380 fps=1.5 q=40.0 size=    2304KiB time=00:00:06.31 bitrate=2988.0kbits/s speed=0.0255x elapsed=0:04:08.11    \nframe=  382 fps=1.5 q=38.0 size=    2304KiB time=00:00:06.35 bitrate=2972.3kbits/s speed=0.0255x elapsed=0:04:08.61    \nframe=  383 fps=1.5 q=40.0 size=    2304KiB time=00:00:06.36 bitrate=2964.6kbits/s speed=0.0256x elapsed=0:04:09.13    \nframe=  385 fps=1.5 q=40.0 size=    2304KiB time=00:00:06.40 bitrate=2949.1kbits/s speed=0.0256x elapsed=0:04:09.65    \nframe=  386 fps=1.5 q=26.0 size=    2304KiB time=00:00:06.41 bitrate=2941.5kbits/s speed=0.0256x elapsed=0:04:10.17    \nframe=  387 fps=1.5 q=41.0 size=    2304KiB time=00:00:06.43 bitrate=2933.8kbits/s speed=0.0257x elapsed=0:04:10.68    \nframe=  388 fps=1.5 q=40.0 size=    2304KiB time=00:00:06.45 bitrate=2926.3kbits/s speed=0.0257x elapsed=0:04:11.19    \nframe=  389 fps=1.5 q=41.0 size=    2304KiB time=00:00:06.46 bitrate=2918.7kbits/s speed=0.0257x elapsed=0:04:11.71    \nframe=  391 fps=1.6 q=41.0 size=    2304KiB time=00:00:06.50 bitrate=2903.7kbits/s speed=0.0258x elapsed=0:04:12.22    \nframe=  392 fps=1.6 q=40.0 size=    2304KiB time=00:00:06.51 bitrate=2896.3kbits/s speed=0.0258x elapsed=0:04:12.74    \nframe=  392 fps=1.5 q=40.0 size=    2304KiB time=00:00:06.51 bitrate=2896.3kbits/s speed=0.0257x elapsed=0:04:13.25    \nframe=  393 fps=1.5 q=41.0 size=    2304KiB time=00:00:06.53 bitrate=2888.9kbits/s speed=0.0257x elapsed=0:04:13.76    \nframe=  395 fps=1.6 q=41.0 size=    2304KiB time=00:00:06.56 bitrate=2874.3kbits/s speed=0.0258x elapsed=0:04:14.28    \nframe=  396 fps=1.6 q=40.0 size=    2304KiB time=00:00:06.58 bitrate=2867.0kbits/s speed=0.0258x elapsed=0:04:14.81    \nframe=  398 fps=1.6 q=38.0 size=    2304KiB time=00:00:06.61 bitrate=2852.5kbits/s speed=0.0259x elapsed=0:04:15.32    \nframe=  399 fps=1.6 q=40.0 size=    2304KiB time=00:00:06.63 bitrate=2845.4kbits/s speed=0.0259x elapsed=0:04:15.83    \nframe=  400 fps=1.6 q=38.0 size=    2304KiB time=00:00:06.65 bitrate=2838.3kbits/s speed=0.0259x elapsed=0:04:16.36    \nframe=  402 fps=1.6 q=25.0 size=    2304KiB time=00:00:06.68 bitrate=2824.1kbits/s speed=0.026x elapsed=0:04:16.87    \nframe=  403 fps=1.6 q=41.0 size=    2304KiB time=00:00:06.70 bitrate=2817.1kbits/s speed=0.026x elapsed=0:04:17.38    \nframe=  405 fps=1.6 q=41.0 size=    2304KiB time=00:00:06.73 bitrate=2803.1kbits/s speed=0.0261x elapsed=0:04:17.91    \nframe=  406 fps=1.6 q=38.0 size=    2304KiB time=00:00:06.75 bitrate=2796.2kbits/s speed=0.0261x elapsed=0:04:18.43    \nframe=  407 fps=1.6 q=41.0 size=    2304KiB time=00:00:06.76 bitrate=2789.3kbits/s speed=0.0261x elapsed=0:04:18.95    \nframe=  409 fps=1.6 q=41.0 size=    2304KiB time=00:00:06.78 bitrate=2782.5kbits/s speed=0.0261x elapsed=0:04:19.47    \nframe=  411 fps=1.6 q=41.0 size=    2304KiB time=00:00:06.83 bitrate=2762.1kbits/s speed=0.0263x elapsed=0:04:20.31    \nframe=  412 fps=1.6 q=40.0 size=    2304KiB time=00:00:06.85 bitrate=2755.4kbits/s speed=0.0262x elapsed=0:04:20.95    \nframe=  413 fps=1.6 q=33.0 size=    2304KiB time=00:00:06.86 bitrate=2748.7kbits/s speed=0.0263x elapsed=0:04:21.45    \nframe=  414 fps=1.6 q=38.0 size=    2304KiB time=00:00:06.88 bitrate=2742.0kbits/s speed=0.0263x elapsed=0:04:21.97    \nframe=  416 fps=1.6 q=33.0 size=    2304KiB time=00:00:06.91 bitrate=2728.8kbits/s speed=0.0263x elapsed=0:04:22.50    \nframe=  417 fps=1.6 q=37.0 size=    2304KiB time=00:00:06.93 bitrate=2722.3kbits/s speed=0.0264x elapsed=0:04:23.01    \nframe=  418 fps=1.6 q=25.0 size=    2304KiB time=00:00:06.95 bitrate=2715.7kbits/s speed=0.0264x elapsed=0:04:23.52    \nframe=  419 fps=1.6 q=40.0 size=    2304KiB time=00:00:06.96 bitrate=2709.2kbits/s speed=0.0264x elapsed=0:04:24.07    \nframe=  421 fps=1.6 q=40.0 size=    2304KiB time=00:00:07.00 bitrate=2696.3kbits/s speed=0.0264x elapsed=0:04:24.72    \nframe=  422 fps=1.6 q=37.0 size=    2304KiB time=00:00:07.01 bitrate=2689.9kbits/s speed=0.0264x elapsed=0:04:25.31    \nframe=  423 fps=1.6 q=40.0 size=    2304KiB time=00:00:07.03 bitrate=2683.6kbits/s speed=0.0265x elapsed=0:04:25.88    \nframe=  426 fps=1.6 q=33.0 size=    2304KiB time=00:00:07.08 bitrate=2664.6kbits/s speed=0.0266x elapsed=0:04:26.44    \nframe=  426 fps=1.6 q=33.0 size=    2304KiB time=00:00:07.08 bitrate=2664.6kbits/s speed=0.0265x elapsed=0:04:27.02    \nframe=  427 fps=1.6 q=40.0 size=    2304KiB time=00:00:07.10 bitrate=2658.4kbits/s speed=0.0265x elapsed=0:04:27.53    \nframe=  428 fps=1.6 q=39.0 size=    2304KiB time=00:00:07.11 bitrate=2652.1kbits/s speed=0.0265x elapsed=0:04:28.09    \nframe=  429 fps=1.6 q=32.0 size=    2304KiB time=00:00:07.13 bitrate=2645.9kbits/s speed=0.0266x elapsed=0:04:28.66    \nframe=  431 fps=1.6 q=37.0 size=    2304KiB time=00:00:07.16 bitrate=2633.6kbits/s speed=0.0266x elapsed=0:04:29.24    \nframe=  432 fps=1.6 q=32.0 size=    2304KiB time=00:00:07.18 bitrate=2627.5kbits/s speed=0.0266x elapsed=0:04:29.76    \nframe=  434 fps=1.6 q=25.0 size=    2304KiB time=00:00:07.21 bitrate=2615.4kbits/s speed=0.0267x elapsed=0:04:30.31    \nframe=  435 fps=1.6 q=40.0 size=    2304KiB time=00:00:07.23 bitrate=2609.4kbits/s speed=0.0267x elapsed=0:04:30.83    \nframe=  436 fps=1.6 q=39.0 size=    2304KiB time=00:00:07.25 bitrate=2603.4kbits/s speed=0.0267x elapsed=0:04:31.36    \nframe=  438 fps=1.6 q=37.0 size=    2304KiB time=00:00:07.28 bitrate=2591.4kbits/s speed=0.0268x elapsed=0:04:31.93    \nframe=  439 fps=1.6 q=40.0 size=    2304KiB time=00:00:07.30 bitrate=2585.5kbits/s speed=0.0268x elapsed=0:04:32.46    \nframe=  440 fps=1.6 q=39.0 size=    2304KiB time=00:00:07.31 bitrate=2579.6kbits/s speed=0.0268x elapsed=0:04:33.03    \nframe=  440 fps=1.6 q=39.0 size=    2304KiB time=00:00:07.31 bitrate=2579.6kbits/s speed=0.0267x elapsed=0:04:33.56    \nframe=  441 fps=1.6 q=40.0 size=    2304KiB time=00:00:07.33 bitrate=2573.8kbits/s speed=0.0267x elapsed=0:04:34.18    \nframe=  443 fps=1.6 q=40.0 size=    2304KiB time=00:00:07.36 bitrate=2562.1kbits/s speed=0.0268x elapsed=0:04:34.69    \nframe=  444 fps=1.6 q=39.0 size=    2304KiB time=00:00:07.38 bitrate=2556.3kbits/s speed=0.0268x elapsed=0:04:35.21    \nframe=  445 fps=1.6 q=40.0 size=    2304KiB time=00:00:07.40 bitrate=2550.6kbits/s speed=0.0268x elapsed=0:04:35.74    \nframe=  446 fps=1.6 q=37.0 size=    2304KiB time=00:00:07.41 bitrate=2544.9kbits/s speed=0.0268x elapsed=0:04:36.31    \nframe=  448 fps=1.6 q=37.0 size=    2304KiB time=00:00:07.45 bitrate=2533.5kbits/s speed=0.0269x elapsed=0:04:36.84    \nframe=  449 fps=1.6 q=39.0 size=    2304KiB time=00:00:07.46 bitrate=2527.8kbits/s speed=0.0269x elapsed=0:04:37.37    \nframe=  450 fps=1.6 q=23.0 size=    2304KiB time=00:00:07.48 bitrate=2522.2kbits/s speed=0.0269x elapsed=0:04:37.93    \nframe=  451 fps=1.6 q=41.0 size=    2304KiB time=00:00:07.50 bitrate=2516.6kbits/s speed=0.0269x elapsed=0:04:38.46    \nframe=  452 fps=1.6 q=40.0 size=    2304KiB time=00:00:07.51 bitrate=2511.0kbits/s speed=0.0269x elapsed=0:04:38.99    \nframe=  454 fps=1.6 q=38.0 size=    2304KiB time=00:00:07.55 bitrate=2499.9kbits/s speed=0.027x elapsed=0:04:39.51    \nframe=  454 fps=1.6 q=38.0 size=    2304KiB time=00:00:07.55 bitrate=2499.9kbits/s speed=0.027x elapsed=0:04:40.04    \nframe=  455 fps=1.6 q=41.0 size=    2304KiB time=00:00:07.56 bitrate=2494.4kbits/s speed=0.027x elapsed=0:04:40.56    \nframe=  456 fps=1.6 q=40.0 size=    2304KiB time=00:00:07.58 bitrate=2488.9kbits/s speed=0.027x elapsed=0:04:41.09    \nframe=  459 fps=1.6 q=40.0 size=    2304KiB time=00:00:07.63 bitrate=2472.6kbits/s speed=0.0271x elapsed=0:04:41.62    \nframe=  461 fps=1.6 q=40.0 size=    2304KiB time=00:00:07.66 bitrate=2461.9kbits/s speed=0.0272x elapsed=0:04:42.15    \nframe=  463 fps=1.6 q=40.0 size=    2304KiB time=00:00:07.70 bitrate=2451.2kbits/s speed=0.0272x elapsed=0:04:42.66    \nframe=  464 fps=1.6 q=39.0 size=    2304KiB time=00:00:07.71 bitrate=2445.9kbits/s speed=0.0273x elapsed=0:04:43.18    \nframe=  466 fps=1.6 q=23.0 size=    2304KiB time=00:00:07.75 bitrate=2435.4kbits/s speed=0.0273x elapsed=0:04:43.71    \nframe=  467 fps=1.6 q=40.0 size=    2304KiB time=00:00:07.76 bitrate=2430.2kbits/s speed=0.0273x elapsed=0:04:44.22    \nframe=  468 fps=1.6 q=39.0 size=    2304KiB time=00:00:07.78 bitrate=2425.0kbits/s speed=0.0273x elapsed=0:04:44.74    \nframe=  470 fps=1.6 q=38.0 size=    2304KiB time=00:00:07.80 bitrate=2419.8kbits/s speed=0.0273x elapsed=0:04:45.27    \nframe=  470 fps=1.6 q=38.0 size=    2304KiB time=00:00:07.81 bitrate=2414.6kbits/s speed=0.0273x elapsed=0:04:45.81    \nframe=  471 fps=1.6 q=40.0 size=    2304KiB time=00:00:07.83 bitrate=2409.5kbits/s speed=0.0274x elapsed=0:04:46.38    \nframe=  472 fps=1.6 q=39.0 size=    2304KiB time=00:00:07.85 bitrate=2404.4kbits/s speed=0.0274x elapsed=0:04:46.90    \nframe=  473 fps=1.6 q=40.0 size=    2304KiB time=00:00:07.86 bitrate=2399.3kbits/s speed=0.0274x elapsed=0:04:47.46    \nframe=  475 fps=1.6 q=40.0 size=    2304KiB time=00:00:07.88 bitrate=2394.2kbits/s speed=0.0274x elapsed=0:04:48.02    \nframe=  477 fps=1.7 q=40.0 size=    2304KiB time=00:00:07.93 bitrate=2379.1kbits/s speed=0.0275x elapsed=0:04:48.57    \nframe=  478 fps=1.7 q=39.0 size=    2304KiB time=00:00:07.95 bitrate=2374.1kbits/s speed=0.0275x elapsed=0:04:49.10    \nframe=  479 fps=1.7 q=40.0 size=    2304KiB time=00:00:07.96 bitrate=2369.2kbits/s speed=0.0275x elapsed=0:04:49.63    \nframe=  479 fps=1.7 q=40.0 size=    2304KiB time=00:00:07.96 bitrate=2369.2kbits/s speed=0.0275x elapsed=0:04:50.19    \nframe=  480 fps=1.7 q=40.0 size=    2304KiB time=00:00:07.98 bitrate=2364.2kbits/s speed=0.0275x elapsed=0:04:50.70    \nframe=  482 fps=1.7 q=22.0 size=    2304KiB time=00:00:08.01 bitrate=2354.4kbits/s speed=0.0275x elapsed=0:04:51.30    \nframe=  484 fps=1.7 q=39.0 size=    2304KiB time=00:00:08.05 bitrate=2344.6kbits/s speed=0.0276x elapsed=0:04:51.91    \nframe=  486 fps=1.7 q=38.0 size=    2304KiB time=00:00:08.08 bitrate=2335.0kbits/s speed=0.0276x elapsed=0:04:52.49    \nframe=  487 fps=1.7 q=40.0 size=    2304KiB time=00:00:08.10 bitrate=2330.2kbits/s speed=0.0276x elapsed=0:04:53.02    \nframe=  489 fps=1.7 q=40.0 size=    2304KiB time=00:00:08.13 bitrate=2320.6kbits/s speed=0.0277x elapsed=0:04:53.55    \nframe=  491 fps=1.7 q=40.0 size=    2304KiB time=00:00:08.16 bitrate=2311.1kbits/s speed=0.0278x elapsed=0:04:54.13    \nframe=  493 fps=1.7 q=40.0 size=    2304KiB time=00:00:08.20 bitrate=2301.8kbits/s speed=0.0278x elapsed=0:04:54.69    \nframe=  493 fps=1.7 q=40.0 size=    2304KiB time=00:00:08.20 bitrate=2301.8kbits/s speed=0.0278x elapsed=0:04:55.23    \nframe=  493 fps=1.7 q=40.0 size=    2304KiB time=00:00:08.20 bitrate=2301.8kbits/s speed=0.0277x elapsed=0:04:55.75    \nframe=  494 fps=1.7 q=37.0 size=    2304KiB time=00:00:08.21 bitrate=2297.1kbits/s speed=0.0277x elapsed=0:04:56.28    \nframe=  494 fps=1.7 q=37.0 size=    2304KiB time=00:00:08.21 bitrate=2297.1kbits/s speed=0.0277x elapsed=0:04:56.81    \nframe=  495 fps=1.7 q=40.0 size=    2304KiB time=00:00:08.23 bitrate=2292.4kbits/s speed=0.0277x elapsed=0:04:57.33    \nframe=  496 fps=1.7 q=39.0 size=    2304KiB time=00:00:08.25 bitrate=2287.8kbits/s speed=0.0277x elapsed=0:04:57.85    \nframe=  498 fps=1.7 q=23.0 size=    2304KiB time=00:00:08.28 bitrate=2278.6kbits/s speed=0.0278x elapsed=0:04:58.37    \nframe=  499 fps=1.7 q=40.0 size=    2304KiB time=00:00:08.30 bitrate=2274.0kbits/s speed=0.0278x elapsed=0:04:58.92    \nframe=  502 fps=1.7 q=38.0 size=    2304KiB time=00:00:08.33 bitrate=2264.9kbits/s speed=0.0278x elapsed=0:04:59.43    \nframe=  506 fps=1.7 q=32.0 size=    2304KiB time=00:00:08.41 bitrate=2242.5kbits/s speed=0.0281x elapsed=0:05:00.00    \nframe=  506 fps=1.7 q=32.0 size=    2304KiB time=00:00:08.41 bitrate=2242.5kbits/s speed=0.028x elapsed=0:05:00.57    \nframe=  510 fps=1.7 q=36.0 size=    2304KiB time=00:00:08.48 bitrate=2224.9kbits/s speed=0.0282x elapsed=0:05:01.13    \nframe=  512 fps=1.7 q=38.0 size=    2304KiB time=00:00:08.51 bitrate=2216.2kbits/s speed=0.0282x elapsed=0:05:01.68    \nframe=  514 fps=1.7 q=23.0 size=    2304KiB time=00:00:08.55 bitrate=2207.5kbits/s speed=0.0283x elapsed=0:05:02.25    \nframe=  514 fps=1.7 q=23.0 size=    2304KiB time=00:00:08.55 bitrate=2207.5kbits/s speed=0.0282x elapsed=0:05:02.79    \nframe=  514 fps=1.7 q=23.0 size=    2304KiB time=00:00:08.55 bitrate=2207.5kbits/s speed=0.0282x elapsed=0:05:03.30    \nframe=  514 fps=1.7 q=23.0 size=    2304KiB time=00:00:08.55 bitrate=2207.5kbits/s speed=0.0281x elapsed=0:05:03.88    \nframe=  514 fps=1.7 q=23.0 size=    2304KiB time=00:00:08.55 bitrate=2207.5kbits/s speed=0.0281x elapsed=0:05:04.42    \nframe=  514 fps=1.7 q=23.0 size=    2304KiB time=00:00:08.55 bitrate=2207.5kbits/s speed=0.028x elapsed=0:05:04.98    \nframe=  518 fps=1.7 q=39.0 size=    2304KiB time=00:00:08.58 bitrate=2199.0kbits/s speed=0.0281x elapsed=0:05:05.56    \nframe=  520 fps=1.7 q=40.0 size=    2304KiB time=00:00:08.61 bitrate=2190.4kbits/s speed=0.0281x elapsed=0:05:06.12    \nframe=  522 fps=1.7 q=31.0 size=    2304KiB time=00:00:08.68 bitrate=2173.6kbits/s speed=0.0283x elapsed=0:05:06.74    \nframe=  522 fps=1.7 q=31.0 size=    2304KiB time=00:00:08.68 bitrate=2173.6kbits/s speed=0.0282x elapsed=0:05:07.37    \nframe=  522 fps=1.7 q=31.0 size=    2304KiB time=00:00:08.68 bitrate=2173.6kbits/s speed=0.0282x elapsed=0:05:07.99    \nframe=  526 fps=1.7 q=38.0 size=    2304KiB time=00:00:08.75 bitrate=2157.1kbits/s speed=0.0284x elapsed=0:05:08.56    \nframe=  530 fps=1.7 q=21.0 size=    2304KiB time=00:00:08.78 bitrate=2148.9kbits/s speed=0.0284x elapsed=0:05:09.18    \nframe=  530 fps=1.7 q=21.0 size=    2304KiB time=00:00:08.81 bitrate=2140.8kbits/s speed=0.0285x elapsed=0:05:09.79    \nframe=  530 fps=1.7 q=21.0 size=    2304KiB time=00:00:08.81 bitrate=2140.8kbits/s speed=0.0284x elapsed=0:05:10.37    \nframe=  530 fps=1.7 q=21.0 size=    2304KiB time=00:00:08.81 bitrate=2140.8kbits/s speed=0.0284x elapsed=0:05:10.91    \nframe=  530 fps=1.7 q=21.0 size=    2304KiB time=00:00:08.81 bitrate=2140.8kbits/s speed=0.0283x elapsed=0:05:11.47    \nframe=  534 fps=1.7 q=36.0 size=    2304KiB time=00:00:08.88 bitrate=2124.7kbits/s speed=0.0285x elapsed=0:05:12.05    \nframe=  534 fps=1.7 q=36.0 size=    2304KiB time=00:00:08.88 bitrate=2124.7kbits/s speed=0.0284x elapsed=0:05:12.69    \nframe=  536 fps=1.7 q=38.0 size=    2304KiB time=00:00:08.91 bitrate=2116.8kbits/s speed=0.0285x elapsed=0:05:13.19    \nframe=  538 fps=1.7 q=32.0 size=    2304KiB time=00:00:08.95 bitrate=2108.9kbits/s speed=0.0285x elapsed=0:05:13.72    \nframe=  538 fps=1.7 q=32.0 size=    2304KiB time=00:00:08.95 bitrate=2108.9kbits/s speed=0.0285x elapsed=0:05:14.23    \nframe=  538 fps=1.7 q=32.0 size=    2304KiB time=00:00:08.95 bitrate=2108.9kbits/s speed=0.0284x elapsed=0:05:14.74    \nframe=  538 fps=1.7 q=32.0 size=    2304KiB time=00:00:08.95 bitrate=2108.9kbits/s speed=0.0284x elapsed=0:05:15.26    \nframe=  542 fps=1.7 q=36.0 size=    2304KiB time=00:00:09.01 bitrate=2093.3kbits/s speed=0.0286x elapsed=0:05:15.78    \nframe=  542 fps=1.7 q=36.0 size=    2304KiB time=00:00:09.01 bitrate=2093.3kbits/s speed=0.0285x elapsed=0:05:16.28    \nframe=  544 fps=1.7 q=38.0 size=    2304KiB time=00:00:09.05 bitrate=2085.6kbits/s speed=0.0286x elapsed=0:05:16.80    \nframe=  546 fps=1.7 q=23.0 size=    2304KiB time=00:00:09.08 bitrate=2077.9kbits/s speed=0.0286x elapsed=0:05:17.31    \nframe=  546 fps=1.7 q=23.0 size=    2304KiB time=00:00:09.08 bitrate=2077.9kbits/s speed=0.0286x elapsed=0:05:17.84    \nframe=  546 fps=1.7 q=23.0 size=    2304KiB time=00:00:09.08 bitrate=2077.9kbits/s speed=0.0285x elapsed=0:05:18.35    \nframe=  550 fps=1.7 q=37.0 size=    2304KiB time=00:00:09.15 bitrate=2062.8kbits/s speed=0.0287x elapsed=0:05:18.87    \nframe=  550 fps=1.7 q=37.0 size=    2304KiB time=00:00:09.15 bitrate=2062.8kbits/s speed=0.0286x elapsed=0:05:19.38    \nframe=  554 fps=1.7 q=31.0 size=    2304KiB time=00:00:09.21 bitrate=2047.9kbits/s speed=0.0288x elapsed=0:05:19.91    \nframe=  554 fps=1.7 q=31.0 size=    2304KiB time=00:00:09.21 bitrate=2047.9kbits/s speed=0.0288x elapsed=0:05:20.41    \nframe=  554 fps=1.7 q=31.0 size=    2304KiB time=00:00:09.21 bitrate=2047.9kbits/s speed=0.0287x elapsed=0:05:20.92    \nframe=  554 fps=1.7 q=31.0 size=    2304KiB time=00:00:09.21 bitrate=2047.9kbits/s speed=0.0287x elapsed=0:05:21.44    \nframe=  558 fps=1.7 q=36.0 size=    2304KiB time=00:00:09.28 bitrate=2033.1kbits/s speed=0.0288x elapsed=0:05:21.96    \nframe=  558 fps=1.7 q=36.0 size=    2304KiB time=00:00:09.28 bitrate=2033.1kbits/s speed=0.0288x elapsed=0:05:22.48    \nframe=  560 fps=1.7 q=38.0 size=    2304KiB time=00:00:09.31 bitrate=2025.9kbits/s speed=0.0288x elapsed=0:05:23.00    \nframe=  562 fps=1.7 q=22.0 size=    2304KiB time=00:00:09.35 bitrate=2018.6kbits/s speed=0.0289x elapsed=0:05:23.50    \nframe=  562 fps=1.7 q=22.0 size=    2304KiB time=00:00:09.35 bitrate=2018.6kbits/s speed=0.0289x elapsed=0:05:24.02    \nframe=  562 fps=1.7 q=22.0 size=    2304KiB time=00:00:09.35 bitrate=2018.6kbits/s speed=0.0288x elapsed=0:05:24.54    \nframe=  566 fps=1.7 q=36.0 size=    2304KiB time=00:00:09.41 bitrate=2004.4kbits/s speed=0.029x elapsed=0:05:25.05    \nframe=  566 fps=1.7 q=36.0 size=    2304KiB time=00:00:09.41 bitrate=2004.4kbits/s speed=0.0289x elapsed=0:05:25.57    \nframe=  570 fps=1.7 q=32.0 size=    2304KiB time=00:00:09.48 bitrate=1990.3kbits/s speed=0.0291x elapsed=0:05:26.08    \nframe=  570 fps=1.7 q=32.0 size=    2304KiB time=00:00:09.48 bitrate=1990.3kbits/s speed=0.029x elapsed=0:05:26.60    \nframe=  570 fps=1.7 q=32.0 size=    2304KiB time=00:00:09.48 bitrate=1990.3kbits/s speed=0.029x elapsed=0:05:27.11    \nframe=  572 fps=1.7 q=38.0 size=    2304KiB time=00:00:09.51 bitrate=1983.3kbits/s speed=0.029x elapsed=0:05:27.63    \nframe=  574 fps=1.7 q=36.0 size=    2304KiB time=00:00:09.55 bitrate=1976.4kbits/s speed=0.0291x elapsed=0:05:28.15    \nframe=  576 fps=1.8 q=38.0 size=    2304KiB time=00:00:09.58 bitrate=1969.5kbits/s speed=0.0292x elapsed=0:05:28.67    \nframe=  578 fps=1.8 q=23.0 size=    2304KiB time=00:00:09.61 bitrate=1962.7kbits/s speed=0.0292x elapsed=0:05:29.17    \nframe=  578 fps=1.8 q=23.0 size=    2304KiB time=00:00:09.61 bitrate=1962.7kbits/s speed=0.0292x elapsed=0:05:29.70    \nframe=  578 fps=1.8 q=23.0 size=    2304KiB time=00:00:09.61 bitrate=1962.7kbits/s speed=0.0291x elapsed=0:05:30.21    \nframe=  578 fps=1.7 q=23.0 size=    2304KiB time=00:00:09.61 bitrate=1962.7kbits/s speed=0.0291x elapsed=0:05:30.72    \nframe=  578 fps=1.7 q=23.0 size=    2304KiB time=00:00:09.61 bitrate=1962.7kbits/s speed=0.029x elapsed=0:05:31.24    \nframe=  580 fps=1.7 q=38.0 size=    2304KiB time=00:00:09.65 bitrate=1955.9kbits/s speed=0.0291x elapsed=0:05:31.75    \nframe=  582 fps=1.8 q=36.0 size=    2304KiB time=00:00:09.68 bitrate=1949.2kbits/s speed=0.0291x elapsed=0:05:32.27    \nframe=  584 fps=1.8 q=40.0 size=    2304KiB time=00:00:09.71 bitrate=1942.5kbits/s speed=0.0292x elapsed=0:05:32.79    \nframe=  586 fps=1.8 q=32.0 size=    2304KiB time=00:00:09.75 bitrate=1935.8kbits/s speed=0.0293x elapsed=0:05:33.30    \nframe=  586 fps=1.8 q=32.0 size=    2304KiB time=00:00:09.75 bitrate=1935.8kbits/s speed=0.0292x elapsed=0:05:33.82    \nframe=  586 fps=1.8 q=32.0 size=    2304KiB time=00:00:09.75 bitrate=1935.8kbits/s speed=0.0292x elapsed=0:05:34.34    \nframe=  590 fps=1.8 q=40.0 size=    2304KiB time=00:00:09.81 bitrate=1922.7kbits/s speed=0.0293x elapsed=0:05:34.85    \nframe=  590 fps=1.8 q=40.0 size=    2304KiB time=00:00:09.81 bitrate=1922.7kbits/s speed=0.0293x elapsed=0:05:35.37    \n[out#0/matroska @ 000001e41b9c8ec0] video:3935KiB audio:0KiB subtitle:0KiB other streams:0KiB global headers:0KiB muxing overhead: 0.084365%\nframe=  600 fps=1.8 q=39.0 Lsize=    3938KiB time=00:00:09.98 bitrate=3231.3kbits/s speed=0.0297x elapsed=0:05:35.68    \n",
  "seconds": 338.99233984947205,
  "probe_out": {}
}